<mxfile host="app.diagrams.net" agent="Mozilla/5.0 (Windows NT 10.0; Win64; x64) AppleWebKit/537.36 (KHTML, like Gecko) Chrome/132.0.0.0 Safari/537.36" version="27.2.0">
  <diagram name="Pagina-1" id="bDmgfSwv4zFQsN3KcKUl">
    <mxGraphModel grid="1" page="1" gridSize="10" guides="1" tooltips="1" connect="1" arrows="1" fold="1" pageScale="1" pageWidth="1169" pageHeight="827" background="none" math="0" shadow="0">
      <root>
        <mxCell id="0" />
        <mxCell id="1" parent="0" />
        <mxCell id="KbrCq-wF8VvZH-ui4hy0-57" style="edgeStyle=orthogonalEdgeStyle;rounded=0;orthogonalLoop=1;jettySize=auto;html=1;fontColor=light-dark(#000000,#000000);strokeColor=light-dark(#000000,#000000);" edge="1" parent="1" source="KbrCq-wF8VvZH-ui4hy0-49" target="KbrCq-wF8VvZH-ui4hy0-14">
          <mxGeometry relative="1" as="geometry" />
        </mxCell>
        <mxCell id="KbrCq-wF8VvZH-ui4hy0-49" value="Lambda Functions" style="rounded=1;whiteSpace=wrap;html=1;fillColor=none;labelPosition=center;verticalLabelPosition=bottom;align=center;verticalAlign=top;fontColor=light-dark(#000000,#000000);strokeColor=light-dark(#000000,#000000);fontSize=24;" vertex="1" parent="1">
          <mxGeometry x="218" y="210" width="452" height="380" as="geometry" />
        </mxCell>
        <mxCell id="KbrCq-wF8VvZH-ui4hy0-41" style="edgeStyle=orthogonalEdgeStyle;rounded=0;orthogonalLoop=1;jettySize=auto;html=1;flowAnimation=0;fontColor=light-dark(#000000,#000000);" edge="1" parent="1">
          <mxGeometry relative="1" as="geometry">
            <mxPoint x="1085" y="290" as="targetPoint" />
            <mxPoint x="1085" y="110" as="sourcePoint" />
          </mxGeometry>
        </mxCell>
        <mxCell id="KbrCq-wF8VvZH-ui4hy0-51" style="edgeStyle=orthogonalEdgeStyle;rounded=0;orthogonalLoop=1;jettySize=auto;html=1;fontColor=light-dark(#000000,#000000);strokeColor=light-dark(#000000,#000000);" edge="1" parent="1" source="KbrCq-wF8VvZH-ui4hy0-5">
          <mxGeometry relative="1" as="geometry">
            <mxPoint x="440" y="620" as="targetPoint" />
          </mxGeometry>
        </mxCell>
        <mxCell id="KbrCq-wF8VvZH-ui4hy0-5" value="MongoDB&lt;div&gt;Atlas&lt;/div&gt;" style="dashed=0;outlineConnect=0;html=1;align=center;labelPosition=center;verticalLabelPosition=bottom;verticalAlign=top;shape=mxgraph.weblogos.mongodb;fontColor=light-dark(#000000,#000000);fontSize=24;aspect=fixed;" vertex="1" parent="1">
          <mxGeometry x="468" y="642.95" width="51.2" height="92.1" as="geometry" />
        </mxCell>
        <mxCell id="KbrCq-wF8VvZH-ui4hy0-31" style="edgeStyle=orthogonalEdgeStyle;rounded=0;orthogonalLoop=1;jettySize=auto;html=1;fontColor=light-dark(#000000,#000000);strokeColor=light-dark(#000000,#000000);" edge="1" parent="1" source="KbrCq-wF8VvZH-ui4hy0-6" target="KbrCq-wF8VvZH-ui4hy0-5">
          <mxGeometry relative="1" as="geometry" />
        </mxCell>
        <mxCell id="KbrCq-wF8VvZH-ui4hy0-6" value="Glue: Data&amp;nbsp;&lt;div&gt;filtering&lt;/div&gt;" style="sketch=0;points=[[0,0,0],[0.25,0,0],[0.5,0,0],[0.75,0,0],[1,0,0],[0,1,0],[0.25,1,0],[0.5,1,0],[0.75,1,0],[1,1,0],[0,0.25,0],[0,0.5,0],[0,0.75,0],[1,0.25,0],[1,0.5,0],[1,0.75,0]];outlineConnect=0;fontColor=light-dark(#000000,#000000);fillColor=#8C4FFF;strokeColor=#ffffff;dashed=0;verticalLabelPosition=bottom;verticalAlign=top;align=center;html=1;fontSize=24;fontStyle=0;aspect=fixed;shape=mxgraph.aws4.resourceIcon;resIcon=mxgraph.aws4.glue;" vertex="1" parent="1">
          <mxGeometry x="585" y="629" width="120" height="120" as="geometry" />
        </mxCell>
        <mxCell id="KbrCq-wF8VvZH-ui4hy0-7" value="S3 Bucket:&lt;div&gt;Storage&lt;/div&gt;" style="sketch=0;points=[[0,0,0],[0.25,0,0],[0.5,0,0],[0.75,0,0],[1,0,0],[0,1,0],[0.25,1,0],[0.5,1,0],[0.75,1,0],[1,1,0],[0,0.25,0],[0,0.5,0],[0,0.75,0],[1,0.25,0],[1,0.5,0],[1,0.75,0]];outlineConnect=0;fontColor=light-dark(#000000,#000000);fillColor=#7AA116;strokeColor=#ffffff;dashed=0;verticalLabelPosition=bottom;verticalAlign=top;align=center;html=1;fontSize=24;fontStyle=0;aspect=fixed;shape=mxgraph.aws4.resourceIcon;resIcon=mxgraph.aws4.s3;" vertex="1" parent="1">
          <mxGeometry x="750" y="630" width="118" height="118" as="geometry" />
        </mxCell>
        <mxCell id="KbrCq-wF8VvZH-ui4hy0-35" style="edgeStyle=orthogonalEdgeStyle;rounded=0;orthogonalLoop=1;jettySize=auto;html=1;fontColor=light-dark(#000000,#000000);strokeColor=light-dark(#000000,#000000);" edge="1" parent="1" source="KbrCq-wF8VvZH-ui4hy0-9" target="KbrCq-wF8VvZH-ui4hy0-10">
          <mxGeometry relative="1" as="geometry" />
        </mxCell>
        <mxCell id="KbrCq-wF8VvZH-ui4hy0-39" style="edgeStyle=orthogonalEdgeStyle;rounded=0;orthogonalLoop=1;jettySize=auto;html=1;fontColor=light-dark(#000000,#000000);strokeColor=light-dark(#000000,#000000);" edge="1" parent="1" source="KbrCq-wF8VvZH-ui4hy0-9" target="KbrCq-wF8VvZH-ui4hy0-21">
          <mxGeometry relative="1" as="geometry" />
        </mxCell>
        <mxCell id="KbrCq-wF8VvZH-ui4hy0-9" value="Mobile App" style="image;aspect=fixed;html=1;points=[];align=center;fontSize=24;image=img/lib/azure2/general/Mobile.svg;fontColor=light-dark(#000000,#000000);labelBackgroundColor=none;" vertex="1" parent="1">
          <mxGeometry x="910" y="21.5" width="60" height="100.5" as="geometry" />
        </mxCell>
        <mxCell id="KbrCq-wF8VvZH-ui4hy0-34" style="edgeStyle=orthogonalEdgeStyle;rounded=0;orthogonalLoop=1;jettySize=auto;html=1;fontColor=light-dark(#000000,#000000);strokeColor=light-dark(#000000,#000000);" edge="1" parent="1" source="KbrCq-wF8VvZH-ui4hy0-10" target="KbrCq-wF8VvZH-ui4hy0-9">
          <mxGeometry relative="1" as="geometry" />
        </mxCell>
        <mxCell id="KbrCq-wF8VvZH-ui4hy0-37" style="edgeStyle=orthogonalEdgeStyle;rounded=0;orthogonalLoop=1;jettySize=auto;html=1;fontColor=light-dark(#000000,#000000);strokeColor=light-dark(#000000,#000000);" edge="1" parent="1" source="KbrCq-wF8VvZH-ui4hy0-10" target="KbrCq-wF8VvZH-ui4hy0-11">
          <mxGeometry relative="1" as="geometry" />
        </mxCell>
        <mxCell id="KbrCq-wF8VvZH-ui4hy0-10" value="Cognito:&lt;div&gt;Authentication&lt;/div&gt;" style="outlineConnect=0;dashed=0;verticalLabelPosition=bottom;verticalAlign=top;align=center;html=1;shape=mxgraph.aws3.cognito;fillColor=#AD688B;gradientColor=none;fontColor=light-dark(#000000,#000000);fontSize=24;" vertex="1" parent="1">
          <mxGeometry x="733.5" y="11" width="86.5" height="121.5" as="geometry" />
        </mxCell>
        <mxCell id="KbrCq-wF8VvZH-ui4hy0-36" style="edgeStyle=orthogonalEdgeStyle;rounded=0;orthogonalLoop=1;jettySize=auto;html=1;fontColor=light-dark(#000000,#000000);strokeColor=light-dark(#000000,#000000);" edge="1" parent="1" source="KbrCq-wF8VvZH-ui4hy0-11" target="KbrCq-wF8VvZH-ui4hy0-10">
          <mxGeometry relative="1" as="geometry" />
        </mxCell>
        <mxCell id="KbrCq-wF8VvZH-ui4hy0-11" value="API Gateway" style="outlineConnect=0;dashed=0;verticalLabelPosition=bottom;verticalAlign=top;align=center;html=1;shape=mxgraph.aws3.api_gateway;fillColor=#D9A741;gradientColor=none;fontColor=light-dark(#000000,#000000);aspect=fixed;fontSize=24;" vertex="1" parent="1">
          <mxGeometry x="536" y="9.66" width="98" height="124.17" as="geometry" />
        </mxCell>
        <mxCell id="KbrCq-wF8VvZH-ui4hy0-12" value="Raw Data" style="shape=image;verticalLabelPosition=bottom;labelBackgroundColor=none;verticalAlign=top;aspect=fixed;imageAspect=0;image=data:image/png,iVBORw0KGgoAAAANSUhEUgAAArwAAADQCAYAAADlE7JLAAAAGXRFWHRTb2Z0d2FyZQBBZG9iZSBJbWFnZVJlYWR5ccllPAAAAyJpVFh0WE1MOmNvbS5hZG9iZS54bXAAAAAAADw/eHBhY2tldCBiZWdpbj0i77u/IiBpZD0iVzVNME1wQ2VoaUh6cmVTek5UY3prYzlkIj8+IDx4OnhtcG1ldGEgeG1sbnM6eD0iYWRvYmU6bnM6bWV0YS8iIHg6eG1wdGs9IkFkb2JlIFhNUCBDb3JlIDUuMC1jMDYwIDYxLjEzNDc3NywgMjAxMC8wMi8xMi0xNzozMjowMCAgICAgICAgIj4gPHJkZjpSREYgeG1sbnM6cmRmPSJodHRwOi8vd3d3LnczLm9yZy8xOTk5LzAyLzIyLXJkZi1zeW50YXgtbnMjIj4gPHJkZjpEZXNjcmlwdGlvbiByZGY6YWJvdXQ9IiIgeG1sbnM6eG1wPSJodHRwOi8vbnMuYWRvYmUuY29tL3hhcC8xLjAvIiB4bWxuczp4bXBNTT0iaHR0cDovL25zLmFkb2JlLmNvbS94YXAvMS4wL21tLyIgeG1sbnM6c3RSZWY9Imh0dHA6Ly9ucy5hZG9iZS5jb20veGFwLzEuMC9zVHlwZS9SZXNvdXJjZVJlZiMiIHhtcDpDcmVhdG9yVG9vbD0iQWRvYmUgUGhvdG9zaG9wIENTNSBNYWNpbnRvc2giIHhtcE1NOkluc3RhbmNlSUQ9InhtcC5paWQ6QzQ5QTY4ODA5OTg5MTFFMThBRjlGNTcxRTY3RDY2MEIiIHhtcE1NOkRvY3VtZW50SUQ9InhtcC5kaWQ6QzQ5QTY4ODE5OTg5MTFFMThBRjlGNTcxRTY3RDY2MEIiPiA8eG1wTU06RGVyaXZlZEZyb20gc3RSZWY6aW5zdGFuY2VJRD0ieG1wLmlpZDpDNDlBNjg3RTk5ODkxMUUxOEFGOUY1NzFFNjdENjYwQiIgc3RSZWY6ZG9jdW1lbnRJRD0ieG1wLmRpZDpDNDlBNjg3Rjk5ODkxMUUxOEFGOUY1NzFFNjdENjYwQiIvPiA8L3JkZjpEZXNjcmlwdGlvbj4gPC9yZGY6UkRGPiA8L3g6eG1wbWV0YT4gPD94cGFja2V0IGVuZD0iciI/PnqGpi0AAFPASURBVHja7J0JYBTV/cd/b2b2yG6yOQgREREVERUtolg86lUPpGqVetUDb8H7qvXkb6ml1Kr1Vup9i5Zar1KlStV6IFpFRUVERETEGEKOzWaPmff+8+bYnYQkJJBkr+8HNnvMztt5x7z5vje/9/sxIQQBAAAAAABQqCgoAgAAAAAAUMho7ovVX3xSk/jhu6GK4I4IFkTMfGIKz3xdmNsYt58ljHecbFfbN3Rb++3usRRyuj353e7UTV+luyHltPHpCiEURQjiZpsNDd1miW/ApvXra/CNn38wSom3lBJjXDCzgbNiaaPd+V200f5J17NN2F2ttV22R/ONbNesvKpu89HjlnWnE//uw3eGG031VUz21UJk+m9FKeD+LhfaaGflIPsm64+i+HxJX0k46l5HzdpV5HumqjoLBOJKZGAUMqTv0RvrSuv+9vAZ4aa6gdzn1y1tY1UIM8x6UuV75pw2gszPyPws03aMdrWrtn3f0XY3ja72zWxjzPzcPBbB7LZjHQvXfYlNh35dc+xZD2S7/JIrlgxtfO6JU8Kcq4ILMlSlm+XUnXJYXxmvP11mvja1q1Vw8rpuHiIlU7omxuz5es1+v5grv1NeXp4RvN8/+8Qp+r1/uT4S9DkdsNxZIc7SLYMo3UrWOb3dA3MeooPt69uWT+lSJ2l3N931HVNfpKusJy+9WYZ9lW66R7K3yf+6Ti3xJA2cfsex5b84/ukuT9q676p/uPbCv0ZWfLEHl+WhmOeLwvK8LWWjjfZlW6LCaKPdTJeZVzcm7M+42d/qhkGpRJJi+x3y2Ob3P39Sdy5Gtbf8frp4fe4xwdIwWVcJ2fGbv8MVBf1dn7aljtLwdlNm3fp8pAXDbTb5wmHz0qoQ8wffpFBJjAdLYixc1hSsrK6jAQN/4NUDa/WBm67yV1XXBiprVlNVTS3zhzhk60bM7JVXR8XaHzdpumfmFZVBZ6qPe5qKlDssU6MdWnrKoZDwDGi6u43stKkb6brfsY7FfI4H/A3xzYasDO41YW42y6/xgVsu9z/1xDma3y4gU+92XE7rKQd3e6+Wr7yUuxMHwn6fTBCtrSyt3Wzf8S90OMMbTsWDkWSSSpTkerLeyUme/riLTmBDtvVVuhu9L9Jte8Hq42Pq6GfkZ7rZKcTNZyPlX99Jq3BDGWQk9oikknY6akeHgDaKNtrPeXW1kzn4EilButmef9Tjoe5ejKpTraGSBCefv9lzxe5Mu6Et9V5bYu6opfOvy8tpc0Pb3WvTSexF3BHH5ue6fJgXa262A13TSJSWkx4xH2WRN4KDBq/kW474IrH5lktLBm+x3D9k+BJl4GZ1kLLdZ5OzLplRu+j9ccGF7++rBFS7zrhhq7c25yProupF59u7GjB12gU56lY2BOEdTNlpBeLJirqHb780OGb3NyhUGc9GucXenruv8tKzx5SXes4NRek4r9057brqijsrw/WdknJKVzgjGPP8kaddzeTfTA/vsvf8DgWvLHSrvGVGuMikrrAujrqzj1k3ckzZT5eQbt4dk9u4vaeIHP0xpRszINwcCPL0JDFz72MxtFG00Sylyz29P5N3NbkcmbWd8lkvzO6xzb6ayYunwdMCGm2pP9oSy7xt1zfZ9eB+R2QG2t4vOJrHZ77wKU6bMFJEDaaeXVsnB/V7C/YhJeif1veSoTKKl5cvpiFbLE+OGPWxNnLHD8u2H/O+Onjz5UqwTIe07WTCo7ymqeKi/7uy6dJTn6poXDOUNKfzF+1HiLxjdSY6EmWd3UVQPOl0NKniTbd9eiLdjpifqOS9+Qc1/XP28ZGjz+x30wbR2uhvfODmKwe2xKopxBxh6bRzpYO8rtNt9aAcuirDrtL1yFWZpNEqKLnfwbOrjz3jrvZ7aW3kgLuHzAh3D4jhTAE52HtlOifR7VbK5E1G8g7yAMguwtN4udWauaWBut82hTtZkVZXvJuiDfQ669y7Zp6l4SzzefvBiMiIX8HdCzmT9txkOJfkgJlOQG5vaiZqbB6Z+mblSPbft8bzIFFzRQWpm2/9WmLHMe+HRu/+3+COYxZog4atRoW0Jbjz3vONk86+NXb7H24KccvoxLGXdeqMubOXGzsw6s5ViVGHSlAwux3J4zHbSUAXVPfYXReX7jvh+f6e1Y+aQlt7552D1BKWObb0rHR38trTcuhiX7eIrHLhdp15TBItE17z0bTZZksqzr96KgVL9U4FL1cUbtiL1JzRKHcqHo4cQI6hes+BlNVJiS4WkHiEAZd2kpQ+d1V7RgyArLVlqWAMq9+1Flswg3SzPeuK2u2ZOsPpu7l5YlinhuLYrzIVorffBW/3+662+2Uu7kzJiGU5RM9YI7P0X/kIWA/nVm5zA+mL/rev75P/7ctnP/SblupNFrfuuNt83257/Scy9mev+TbfZgUqxyZ03Fl3rFm4YHf+6tyjNPP8C5aotuKVdWBdH7TsDHzJKyYzbUAJpqjim69HNT//2Cnlp19+o7tHzDzTQ22mT3sXXvdddXz2g5PL/UQpTSFNUU196TGU7fdzS3jKSljnkjw75DkizG1GwqCYpkSDp114vTZ8p8UdJaFRx2MMAAAAWVNLrNsXsvRloEemOSCH636d16yr/aQpjBQk8oLuLFg0fvxupH/uMyP5q8+dEhswcGnr6J++Hdzz5y+XmuJXG7TlqqIu6ZJIsvS8qVc3fP7RmMrVP2zljDJse16W7fpv+2xP/DMKmMI89bcHJ6cO/OVs39CRyy3h3odiV9I8++EzypYsGqf5FTIsWZk7/Yo9M8/S5cPMokiZpZEcf9gzkaM792qB6VsAAAAgDxHOP/fi75q3KIpGfp+Pguan4brVwyteem5S6qoLHq899dD/rJp+0c2tC17d20g0a8VabsFtdlziP+2i61tUFktPWDKWU2PE9Jw/t2f5/d+vHt78+F8v7I/fTn7+3k6J2Q9NDijMWhLQsyF435eKSJsnSqlrHqN5kI1bbLYkMuXy67raG4IXAAAAyEOY18WdVxNIEcA5pUz1qysqMZ9KlQFGA1Z/N6L8qYcuar3ghNe/P++4F6LPPDhJr19dUYxlV3Xc2ffwA37xbGvCsOxCLR+4nOVQ3TrPjhAPmMMTNufvx8U/enO3vv7thofvvrisrnaY0DTLTrat2M2m8hVpd2jShSOXL8znRl+wvvTcK6b5h22/FIIXAAAAKGjRK18plkCSn2iqSj5TsGiq+ZDPmkqBgErhkEJVIkmbvv/WePWPFz9cP+XIl6P3/+m3xuqvhhRb2UXOuebq6OAhi40UtxYICmdRoXCEVS6gqPYiNubTKNTcNKjpodsu68vfa33tuQm+eS8eEQxq9t0C+c/yANOV7+z+0ruuaYUgQ3Bi5iNmDlj0Q456ovTQk55Yb1miuwAAAAAKCe7c7OWkCvthTYsJ12ewIFMHk1x8X7Ps89202/50/Zozf/Wvpnv+eEXq++IQvnLRl3/LkctLzrtyWqtPjTIr1lYnnhOyicj43Qr4zOP777yDmufOPqJPfqplTaj5/lsuL40lKywrWdtRhG08IOxWlT3By9IL14Rii3CuGxTfbtT8qim/va5bgwd0DAAAAEAh0HZpkQy9zqxb0NxelCVdnlkPJ4CCXKylquQ3n6q+Wj6K3fLnGfWnH/Hvhnv+9NtU3crqQi2lFo+Hg9IJJ8xKHXL0E0ndFpeuj3aWa4s+5aBFVSjUqkeaHrr9Ut7SEOztn2h87slT/O99uLeiZgSiLXFt0c164AS0b9q24ohvaWbBqbmkpK70vKuu1TYZWgvBCwAAABQN7gyc41KUKZnXckpX0exn+dBUx3WduU3TTAWoUFmpSjU/fDuS3f2n6xukje+cJ44pxFIKtzNEjZx56fS1w7b6OJV0Qt9xncgNg2dHWqCs2a5KG15FBqVRyBAKBYKMSr9YtFfLC7Mm9ebP6KuXD6JZ959dViI9s3lncjPtqX8GAe1DwIuM4Nd1YoZBqp6k1gSRceixj5X0IOwyBC8AAABQDCLYK4Ct9459qGqKGVMAy1vF3OenMr9KVV8tGpf6/SV311103FOti+aP6SjlWIFoCHWzbVaUnnXpjKjf18SEbvmylva8PC24BGXLxEFYPrrNehHMCkojbQzKNUGJvz84WV/9zaCNSVvWn1uHzU/MvDD47dej1IDZFtT2btL6LbfUNryy+6nwRADmZJivW3cYNb/yjN9M70nqELwAAABA0WMLCikKDFPsKapKlcyoKnvjpWPqpxz3Qt2dv79Gb14T8u4Ryu6S/V6l9BcnzBK/OvGBeMK+dS5FJmsjcrNzK9/1yGvb0joGBuYgJfj1kjHRvz141sakLetPPuKfLBhNLzx1YlCjLNco84jeDsrbCRQVKwnVlV94zVRt4JAeRZ6D4AUAAACKXOxac2fWKnhhLwgyP0jpnFRVoQENDYOVmX+5rv7cY/7Z8v5/9irUUqg445IZa7fb6e2knjTzzx1fr94IX9mSgU4AEsd9msGZ5WM5/vwTpyY+f2+njU2/8YFbLg/Wrx1imbhwnjMRSEVa/maOJ64T6cdPvj24+/hXepoeBC8AAABQxDgOzch2UiAd0iqWfS9TNWKKSsGwSlVBRpUf/2/f1ktOearh/hsuEYlowQWuUKs3r42cf/XU+mBpbTJmkM7dOW/KutMGa87TFKJWiF/pJkz1UUVt7bDYo3dfvDHpRl+adRT9998TSoKq/SNqNsWud1Fc29dyrWVrk6CGn4ydVzHpvBs3JHUIXgAAAKDIyUSvsm+fK5bU4+ZrYXt2MD/0maJoQEvjYP9t02+qv+KMx40VXwwrtHII73HwPO2ok++JccfkOauuuNy6scWf4rFtleI3qDEyXplzePzNOQdtSLq8eU0o/tjMC8uTqQhnjhzkjvu6LOe4fclz6ZWhJrK68sKpV7OyATEIXgAAAAD0XGAwW/Iq7u1zRyAw1w+sFL2GYW0r0Uxh+MpLx9RddOI/YhsotnKZypPPv6l117Hz9KSeMWnNZrwFqyaEI9pEum6knXFpU7yq6bG7LxStjf6eptvyzMNnaZ99tJeldYUnsATPluD1LpZra04SM1/6Jp1zc2DnvedvaOoQvAAAAEBRYwcZcBdItQ1Y7PjrlQ/LPZZKhmAUKFGpatmXo6NXnPlo86yZZxVSaaiVgxoGnHfVtS2lkdVqSjeLxDD/87YDhE7f9T7KOv5vRbp6tCBR8P23JsRffWFiT9JMrli8VfxvD04uNyteuGYM7iyvki1p6Lp/k1HvbG8M8jkZ1ym+x77PV/z6rDs2rhwBAAAAUPSid92HI4IUx4evKXYVTSXN77Nse31BPw2ItdTQzf93fd0d107zppbvLstCY/d7M/Dr0+9ulYa8uim85MPjqMxdUtX3Tsva+sQVTjgI4VSNFlAoYh5X8xP3nG801Ea6W/bRx2eeH/ru25Fk1qXfp1mJWUMd1UfCjTzR38g7CI4PZME56bpcoWZQQ3X1iorzr5jGSqtiG5M8BC8AAAAAuoVIizzHzlLTKMz1itCDt/7mx/87617eaIuuQqB00vk3Jsft+ZKRkJPbto0za5t7orQE7b8ayEhgZittVaWyzz7eo/kfj55mifX1OBeLz5+7L5/zzHFhn0pCeuZwzVaYyIUGZqMqJCMpNzE1Gjzj4hn+7cZ9sLFJQ/ACAAAAoIeiy3ZhJhcTyQhgJYxCgeeePuOHq85+OPX98kGF4KOXhatiJRdMvTpWM2CFMGyzAvnEmVf2SunZf1ll7RfROYvMpJOF1qfuOzf5TdcLCXms0b/2gdsvK1/bNEhYpgvc453DrdssCV+FeYKjMEqkiFL7HPxi5LhzZ/ZK8jhxAQAAANBdwZX2C2v+U+VtdfMhVJVKgwqVvvHqEWuvPe9+Q4aqLQD8O4z7gE865+ZG3cwvNyw/uO6irsyML8tWZTgPYUXKC3///fC1T95zfle7JF597qiSd9+coJUoniVhSjo54YrfbGVI2u2agyiRTFH94E2Xlp392+t6TU/j9AUAAADABkkUaz2bnCW0hXBZgFHF/96c0PA7KXqXDS6EPEaOOX1mYs+9X0zoBqmucBLeILjZ910rPTaU+MwaeOGpE+OdhIIW9auqEo//9fyIFJUKc6K3KWkxaOVDhjDOVk6kaYVqDyIaVa2p9MxLpweGj/4MghcAAAAA2UXqLenBQPD0DKFfVajsvTcnrLnqnAf1b78cmveiPlQRr7zkd1fGBg1eYi2qYjISXcZTQlbL3vNCmliUNkVrmh+deWFHX48+/eCU0OefjmM+V6mzNgvwnMDFWRSGtklDQuckDjzsmfJfnfFQi6lTe2sBJAQvAAAAADZCdDGP8LNFlN8UhZEF8w9a8/uL/irqV1fkezb9I8YsUk+56PpmUpsydq/kuHPjlJVQbJ4ytwYbBiOfKWb9r885PPrGC+O9X9WXfTwyNfvByX7NdrnL5Bgl7XvZW5mMshZWzjwwntIpOnSrj8vPu2aq/ChsFnZv2YND8AIAAABgA1WESqTKKMOaJxyx+VrzUbBEofJ33xpff8NVN4t4/ociLj/mrAdi+x/2TEODQUaK20LXSJkPPUvRyRQSZnlL38hSuvr8Kqmmog0nkxWxh++8VMSb02Xe8NjM80Nr6oaSTyUlYNaTpphinXkWwbV1f9bHIyTn2fG763iJ0Fs5rTGUaOCsS2Zog7de2fulBQAAAACwQXQeepcrjAJBlUrmPnNK/R3TZsjP5O3pljzWHgPOvvy61mGDl1iBKKypUqXvNWKX0tENF+JGDmGkmaI3+NF7BzT/8+kTrTKf/8re9PKzxwT8rgWyQtm1xeDptmPJXmtSWVBSBvI7/OgnSiecOKtvhgcAAAAAAL0uhZmM2UAlikqBJ+87Z+39N1wib0+H89hlmW+LkcvC5191bYtPa7ItAFgWy7czIcwoTAYln35gcmrpxyPXPHDr5aHWWDVj3sFJtn3uirTlsHzIIBOxkdssrDzniml99YsQvAAAAADoE1GjOTOPJSRC+r03Xd0yd/YR+Z6r8l+cOEv/xVGz4gkZGYw7wRuyWcoZCSw9Hcj3iqaRf8WX45qumfJ5ZOE7E/ya5ixLEznQKqRXCWaFDjaE7YasIRCuLb1g6tXaoC1XQfACAAAAIG+QM4q22zLz4fNReSJe1XLztdcnln48Mt/zVjnlt9Oatx7xgUgJ4oYUba6YE9kpZ9cal2Xiv4XMvxVffUZlivSXzNrNCGdpZtoR5LK4UqbQ5dygeFInOvKkB0r2O3xOX/40BC8AAAAA+kTcyBlQF01jVL7quxFNf77yZr25rjTfsuN1j6VtutWq8LlXTGsIBBosi9gsqSlL6ApXbFM6FIYleaVbW1WljGddz0Kx7DQIT/hiU4Sb7UEOGKI/GTuv6sxLZvT1r0PwAgAAAKBvBA7Z+ooJToZB5PMxCr7z1vjGO2dMy/fchX4+8Xl+5AkPxHSvfwOWhVle14cu8whhy4eD/VpwahtOgmW13KwBguO/uSEUri03Bw5KRU0TBC8AAAAA8g+mSmNS86FYt90VTbows0MQq/949LTonCeOySuB28HUaMXpl8yIbrfdAr1VJ8FNRS90S2CmBb8wqO9nVFn6L/P8sz9R7XpIe2dQ+1z6Sf++os2gx+OKTDfLQtdJSemUSAjSjj9jZsluP3+jv4Q2AAAAAEDvCzHmusAyRa4pfBXzvfTVW5ZKVkTv/NO1yW8+36r9XvnktkwdOKSu9OzfXre2vGw1c8QdF67I485UpujvUm/3qv/ckEmxa4Xbk6KXibQMtz+ntM9dkeIUHzN23oBJ597UX+UCwQsAAACAfkV6ESj7esX2TR2YNuSb27Lwfke+qB196j1ROXtpCnrLr6yVBcUWf0UktexgFsJ6FsJePselwBVuaDr7OVo9YEXFBddMZZG+N2WA4AUAAABAVpDzfAFTgaj//ucRLS88dGK+5ydy8vk3tO48bm7cMBw7XscFGHNzWzz12nZOm60jNFvluOCEM+/0jdnn7X4dZOG0AwAAAED/iSJBiikE1RJGFYpRGr//9sv075cNzuc8qeUDo6UXXDP1R3+4NhEz0svIMjKwOGDpgBLCee3Gg+OWNUNLVFDjrj+bEzr+7Fv6+9ggeAEAAACQFXHEfAqVffXVTi0P3XFpvuen5Cd7LQicdM6tUSUj/GybVVbU9ZwOgWzo1LzpgBUVF15ztVJSnoTgBQAAAEBxYHDy+4mSLzx9YvzdV/fO9+xUn3Lhn/Vxe78ogylYi9hYcYld4fEY4TVvkJ4rmpgSDZ12wQ3BHX66MBvHBsELAAAAgP6FOX/kYiZNpbLmaE3dg7ddxuNRLZ+zpQRL9aoLpl4dq6pewQ2dhC5IGG4oiHWNG0TBVSsnxfL7a89yy/DBcgFfPGlQcp+DX4ycdOEdWasbnHUAAAAA6D9R5Ni3qgoJTSND1UgNa+Rf8MahsddemJjv+QvuMPZj/6Rzb0rIm/YGJyPFKRPlLDPvKTw2rgWDjKxn+SPmlkc2I6mTbordhkGDl0TOuerarA5GcOoBAAAAoN/xxCOQwq/MEBR78t5zRdOPpfmetbJjzrgrsfcBzxim6DX1fMaO1Qn9K5j9uuBEmGvCYT5xppDPzGCMqdHQ2VdMC2y94xIIXgAAAAAUESwtjuRfLsPz+oiCn3ywd+PLzx6T99kLlumhC66Z2jh4k2Wcuz4LmBWUwnVZxgq1XhXFEZgGybDLiQMPeyZy+KQnsn1kELwAAAAAyBK2FNQURqqqUYlqCqRnHj1dNKyuyPec+bcZ/Zn/9AtvaBbyTr9uPqRrLmE9HBcOhVebMm/SbtfglilDy7AtF1Wef83VuXBsELwAAAAAyALMtuc1RZJqCl6NSdHro9IvP9mj+aUCmOU1KZs46b7kQYc/puvcmtC24o4x4Vj0isKTvIzSgj7mCzSEz758mn+z4SsheAEAAABQ5LJXYs/0SlESNMVS8u8PTuZrVlXlfeb8pXrV2Vdd27TF1h8zYVh3+4VX7Bca3KxHVaGkNOP45XGPlB1y3Gz5cUsO6E1l3UYHCgNRXNlF40XbKKCmbF74MRmRc61YdPDAedVbNWmF43Vu86uaQtoXX4xpfvXFIwohh9qwkctKJv9mepMvUM+MTFNhjsgvOM2b5BQdscP8sjN/Mz2n6iHdyZpqXLPOYek2g9vRQYTrRqMwLiOCKW1OMSV9eSm0SChO/TGvEvTkTxgFpA5wkenWBcWtc2lbJWN6pse6AhfqrJ+u3Fq8wxROqmX/RqRyDsG7HjEpvD3bxvZp1mngnhueS4L3Z4VzrgjnOyrZr4XnS8x5ryrU+YQWRufth3fet1bRm+UYMuu08YWnThKHH/sYC/Z/VK7epmz8r5/+/q3Xf87/NuusighZvmotvWX5IWZ51i64p/5E5vwwNZbQOf3IfE1lZ1wyQxm4ea27RzgHxKTiEQ5K2ojaNajmjvExdfBMHbzvbBvv4rv9li5Pj6Qy8tauLF5wHZDirH4VGfGb9gHIe6dueB/VeQ/TlXrXfkAgdN0/CVtYtTsneq09bOi+lDttKSv9EheeQaiwb3Ja7RkzvF1jeGbH+Ia3UctnqCM82r9PP4vMdmsFuvQfyzL9rBS38j61/HydAXjb+TvbHRUGmF1LYLvMfBpRYNFH+7a++/oBhZK36imXXdey7fCFXPrldSek8rI9eHwKu7rR8bgRl942jj7hgdABv3o+1446E9EklfKJhDyHeUbAswKaQZN5CRhmtjS7X/KMTJSCm+F1Bi2uPzy5MjQl0llkvIBymjKzl8CMWLcEr+7trIy2k024Bmf32mHpJ4NE0m7PPJXSUDAdzSq5M2Fmry0FqRQOYiMuU22miT3Ju7cAlY6ugVKsqOTekJZ/BfPsrDoi1/yQMeE5xZxpFpxrXYpd91k3yymo6xR78akTQvscPqcQ8ufbbOuVVedfdW3zNec8WKknqqy7BHmrPVxB4bpbk9fjFDXtuOPbNWdeOiMXjzjTqQ7d+svm3X/6Cg+ouq1zuSKYwuWjTafcnc6jXXl0+h2vNUFX6YvOy7rTi0f6WZj5YFw1DE395suD/M1ryQ5+53ZPrDCv9o7Ylbq3dcCmS/ShWy/lVoaZWbGdiMPO6mZ95dydOunVdOXsly3bua77Ewldi1QPWo3LRcdInZscssVn+qAhK7hZ/8y+fasw87VgzmyiYLz751QPzvHebEu9kW5P+6We9Hcdpb2+dM1zkVl9lNnXKmy8rutz9YSh8ZE/WYiW27EytYZrhqDUgJplyWEjPrMH8YYm+7Z16pytZ17AsZVm8jpnDpp5S/N4weXssWr+RpL01hiJRJyM1ij5dE4BI0X+pEGabg4Yfaa2NQULVxQ7iIC88MsOV4aRdcRyesaetZ/rhVlDd65hfj9R4v239k0s/t+owMhdFhVCtsIHTHw++d6bD7U+9cAlJczWIoqaj6cks9q9bNU6l4sNOdVHKlZVXnjtlUp1xpQhJwXvoImnPkLyUai01Idqf3v6kxXv/udwJkMZGpw0VS3gqS37VoP0g9e8296vbfL7mZMLMpvJmL3m1R/mBDpsB63JFBkTjn68YvI1f0R55CipWMakDG25E8Er0o77o62m4PzJbm9XXP/ISb32E4mYwmPNpYJzSzxzI+U34i0hI54IGi3RiLrmxxq17odB8dpVm0dXfTfE+PH7wbGVK8b7Gn6kcHOcAtyOqCWFrupXSXHtgq0jd+4jsnVHSgzit2NxIstSVUhb2zA48epzRxeK4JVEzrps+tqP3xvn+/STPaxJh6Bj/u3cM8j901GQe4cjJWToZJ3i0hT52NPuDvz0gDdytk0VzdkTropxRdXTEyxq4S1Vazt7kMkZ13yWwX/M7IpDhbMK0cYfgjhYD5b1ui8Q72hbQbaJfMSHdrz+Ps2RivZ0qdmvddymN5hAiCuBUJP7Vk6H+Dr4WtB5NsWwklqzejCt/Hqr5JeLRyWXLdk28cUno30rlu4dbmkm1TKLUKzF0s4hO15XmWcNCehyjGNwKjEHEKk35k7gJ513kxKpacrX7Ei3XO7CLXXApvWl5111bfQ3pz8ZaY1Vp60D8qZNMHu9pmOyw83xZ3K3PV6qmXTBjTk9iCq2E6i9/ZQo1PG1k0/LjIFg3wqt0HErh9gF+dGfuWsQMj12thf2qcEwVzfbeiWZj6Azq6VH14TEl5+PSny0YI+Gd9/Yz7d44eEl9Q3kl+YP1pRl28kIUbhXoI1HLraRdtpmLRtff7VrbMF/9y3NwYVQG0pwz0NeiR176syWB+68pkxGX2P51BLcc5CRYqrdxsrKlQPOvepaJVwRz+kmVTQnTyKmMO8CHcOrDAvNrCGzOlneVmPOSnCImyLVu7a7QQx6QN73a+kABbYni5w7Qq10QMy3814LSk+55Jaamx85uvT2J8fGJ186tW6rke/H4joZ0RSJRJK4Yb6WD90gaTNMQpcLEuxnaxGc6LBHL8rBuqZSSSJFiXn/+mU+Z6Ujt1wVp5x/U8voXV+LJ3Ti0jTAfMhnkeO1Lgxu6gpOip6iFkNQ+MTJtwfNdp/zY6hi6ixNJoqiySsvLH+7YCOuGUJ2ThC8IL/7tHYCN9dH70owkgyM2v39qnOm/qFm5jMH07RbTqrb9aevNApbMEg/rHKhDxNtXaGlvYOm5Y5rv1xkotfyiyxtn1UKaETxD9/dI75q2eBCyqJSMaih4sKpV0crK1fK67Vc9CjSA7vcvYZbR8kF6UlBfOxecyInTrktL8obHSkAAADQhxfaqsH14V+e8timM586rOTWxw5pHrff83HppN/VM3KZvvVQHFtfj82yY/RgeUgrqpG660dJWE552ervRsbfe3PfQstmcJd93lZPOvvWBGeWS2c7DII3sEPuDe3k3RV557h18KBlpRf97nKlJLdNGSB4AQAAgH5VNxXx4D6HvlTxl0d+ZUy9+aS1W434IJb0zl5nwiOlLfCYO+dXbOHi3fwKywKxNM4p+farBxdiVit/PeW2+O77P5NKGKQI2wm0SMuz3JNpsjXGpMvpk8+9yZdH3jMgeAEAAIB+Fb5leunhJz9WcdczB7f8+rS/1Cr++njMoHjcsNyuMcrc2naiTXskcLEI3rb5DfrNcvjs4zGJ1V8PLri8lkSS4XMun9ZQvckyXYi0qMzNGV5BCd0UvHuPf7pk4ukz86mYIXgBAACALKBtMqRu4BV/ubTkurtPbhi+zUIZOE5hwnNp5o5fhyJcsia8Yo9ZPqUCtatG8Y/f360QsxvYbuzH6n6HPJ9IuO6kRM6IXeH8s5skp7jfR2UnnHknC+SXO0UIXgAAAKAfaWl37S078MgXK++cdVjr/gfNbknKG/gGMWeGkzOv7CgmwSuskOiuOYd0NlSWSFDy3dcOLMTsJld+MSz2zmsHKJrMOsvdGX2FEWtNUdOc2b9uvymW45oSghcAAADoRzpyURUYvPXK6hn3npA45vS/rNV5jOu65bhB2nRKTw5MGMU108tsceVqX2KKFX2t9dOPR6caVlcUWnYb7r7x6siK5aM0v+oGvKbcXKqoUNhn/n3x6RNbXp51VJsxSo6XMQQvAAAAkAsX5FB5csAVN10qTr3w+to4j+lx3Ra70lev67qsSOBMNbWeZofmYIx8milXNB8pq77Zw1j6+ahCymvTPx6cVPLq80eVl2hk+elIr2FkOSF4mfPPNW1QNEZV3ChN3HvzlanVywfJ77TkgZ6E4AUAAAByiAHn/u736pQLb2zSWIwMkZ7pLKoJXubE1WN2oBH5R5r1RpqbSf/w3T0KJZ/JpR+NTN5349VhnqzgZLv8UhxnzDlr1iCjwmkahZZ9MSZ614xp7sfhHHePDcELAAAA5BgDz512rXLmxTMaGcUsA1ZFyQjfYhC8wp5RlM+M2TOM3CwHzRSEyc8+2rkQ8ijiLcraO2dMC3/33Qjph9mKtcEy/hly6lidMNju0cngKUFVIT7n78c1PvvgpHAeRHKF4AUAAABykKqz/+8PxlGnzWxJERlxQbyogmfaAkv6IbZtl225pfjMEcDSz0clV305NN9zGJ193znBeS8d4/dbMffMvDLLVjkt+nNIQ7K0BLeNG6w6MT+qEHqk9d6bL09+s3gYBC8AAAAANkz0Xvh/V7bse/Ds1oTttaCYsOZ4RUZqkaUHFQr/+P0o+nLx9vmct+Ti/41KPXT7ZWWWma5qzWK7S9RY2pwhR2f03UApimoOQHxUtmLF9s13/vE6CF4AAAAAbBjB8mTVpb+/rGW74QsNo3imeLkj9pSM1rWfmUIlzQlKfL5odL7mTSSatZY7p18X+aFuqIwobdspuzPZ3JvbXM+JZWZSohGp8/55RHT2vadB8AIAAACgW7T3Z6ptvu3ysgumXt0QKq0lR/QWuldexSOq3Gc3wLJ02BD/In/teFseu/OSwBvzjtD8RIbuBhbxWsmK3HdBZ60qlHcdDEqZL8uEURq7/9bLUl99MgKCFwCQpTE4s4MWAQDyglAHC4BC+/1yju/ok+9pTpmCV+ikJ3UrDLH1VSNlflaIs7+s3cO2IFU1c1Dw9dIR+tr888cbXzR/TPTJB84u8cvocSopAemITHH+rZvfnERWgDU1rZovNfL7faT6fFSxeuXItbf9YbqIN/oheAEAWRC8AIBCoOzkc2+Obbfj20aKOy5a3RC0oqjOdJnTcO2q0crK5Vvl03HzWJN/zR1/nFa2pnaYUH22ey+Wj7MRXkHuzkoz8gd85H/t5aMan35wCgQvACArXRMAIP9RqwbXl5124Q1N/mC9tPsUrs6Vs21FcKannWKpjAINMYqt+GpEPh3/mkdu/4365huH+vxqpraEKKgaKpPmJvfedln88/d3guAFAPR/NwTVC0BBEDrwqGeNcfvMa02RPcNrubIqjhM8Y7eskCoDzy3/Mm8Eb/yD/45LPXnvueXMnRPl9mhFyXHzhZ5ea1SFImvqhzTdOm2GaG0IQvACAPpxzA0AKCQCR550f0Mg0KAajqmvnCVkhX05Z56wB1IoaipRYvlX2+SFUG9eE2q8+0/X1kQbBgfCPtJY4fXQwhmOSP0eipiid8F/J0Sfuu8cCF4AQL92RGanylESABQGZfsc+pI2bp9X4obndrgobBtekZZUtkiUwsr4bvlWoumHSK4fe8ODt14e+eCt8ZrfZ+XEritWUHXDvPmRUdhMdckfvevi+Idv7pYrx6mh6wCgsJEnebJxzcD4D18PNjsieyEwl89SBCvc7HzN11xxei5K+/4hz2u2nm3Uyfc62rax6VI3982H47X2dz+U9WHWhfTHGSyNUnl5PVov6IzwMaf9NfreG0cFedKZ3S2iRWvyHDGzHFlTuwf7sXYQRTZpytVjjb855yD9yfunlEiFznU7VLLi1JdwOgeW/wJYuJ2bdX1x2uiP9UPW3PK76323zzpMjVRHIXgBAH0Io6DfT8nnnvztj3P/+Vt5U8d2n8gdV2XOIhBhj9EV6Uic7Fs/wqPQMn8p7SWy7TZKX3Az2zNj/+6k25GydIKLbnS6zIldlGvpMsu9Pjf/yS0q6eYFMZVIUXKvA+6puePJyWi/oDNKx+49T99pl5f0d98ar/mciGRaIfdkLN1FyBC8io9IbVxDiTW1gwJb05KcFIFrvqtuvGP6tIqWlhohozO0sdllHi8brDDqxnrj2JSbIxItKMj/4fv7Njx+90UDzp76BwheAECfIsVVRTxGFS1Ru4OVSldhBX8LNF/mRdKBlRSFkklOeoLox+jaKpQN6FJkBEJcO+CwvycXvD1e47bHhmKx17fkohRVCZ3ED98PzpXjkgFDvD6UGx6+7bKyzz4d5wsolggUHjtke+BrD3kLyrZUTr2rzlDezHPIl6TGWfefHR+339zgznstgOAFAPStrJL+HjXNM5fQ/r46yA7mZY8ZltjlpFo9spALkVTYXIP1E/7ZgS8lB9+xmL5fObLoVqc6Ap+v/Hp4rhySV+zG/jvnIPVvj5wW8JE9+56OoZYR7d7nwqobx3uIcLw2NDYMbrrtuunarU/8UosMiGXrsLBoDYBiukJ0+Jp145nlwHcpR77by3lkmVucHmMJCF6w/gv4oK1XJsbu+UbCKKJMp0ftwhIw0e++3SLXDtH4YUVN9LbfTw+1tlbLmWgh1u17XVPXwhyn2P2ZNNQydEGaT6HAwncPaHrwL1dm9XxBlwFA4WPPLSie2d2OriBdrazqbFtP92m/b0/SZT1Il/VhuqIH6Ypulq99izbjjB7O5ED3UMf9/OW4pbKK544NY456kZ4a6r4fLJItOaVlGu69YWrpksW7akGFFCZIVVmbvlgUugBjLD0g8fs06+5imV8lPvuRM+Jv/PMgCF4AQD9MjRCta8rA1iMEqYttPd2n/b49SVf0IF3Rh+myHqTLulm+RJ3PwAPQOSWjd3ubDxy4vJhM8pkzKJS6KtRQP0E0N1bkyrE1v/L3w8VzT58Ykna7jsRiRXc+C3L9hkitr1gWDj6qbGoe1HTrddONuu+qIXgBAH15iehAbLIOhHBHz935Tl9/l3Lku72ZR2U99QVA16iDhq1OjB47P2UUW85tHyiBhnoSLc054YtXX/314Jbb/jA93JqosNQ45+uMXd1e17VZKkzbJdbuaiPryiA1oFLo08W7Nt5z49UQvACAHBHD3q55fYJ5Y/btq3SpD9NlvZgudXDMAPQM/6ix73DVFoFiHVlYiF2W7e/VunPe3ECplmip/DiWZU3TMPPPU0uWfT1K8TFroXDmINcd/hb29YR1OOCX4t6vmSL/uScntc575nAIXgBAPwnb7oje9W3b2H37Kl3Wh+lSH5VDwcsU0EeEdxjzvi7dAZDhxCPj6TYkOpTBBSB4ndNIxONkNDdl3aSh+Z+PH6e89I9jyks10qS9qlyypZijENVUeOazx+w4/bqwRZidS5E26FCsdQr+MKMBRryq6a83XG38+G0NBC8AAAAAuoVv8y2WiUFDyDB4OuCJlLw8HfqkcO8gyJyp9bWWcAplyUIg+dUnIxKmgKswhRxP2+1mTBcE7uBkBijySdOo/MvPd2u85wbLtKG/ZuYheAEAAIA8RhlQUxsdtvUzumXH207kMlGAi6Y8C02FoNTa+ur+FE5tjiTRojTcNWNa+Jvlo5jqs8MeO27ThBMymBXxHRuWjsPplIGwbZuDmkL6s7MmNc2ZdVR/DVQgeAEAAIB8xhfivi1HLBYdyI3C9hEgrP+JtXVZm+GNvfj4Kb55Lx0X9DPiwha5wuNWUIF5EjHvv7Rts0qVqWRFdOYNU43vl/VLtDwIXgAAACDPKd1qu08Fc26jSx0o7JldJkQBBzew/+rR5rJsHIH+1Ucj9XtvvrKSc8telzGFpLWujNxueT0XLKvmDCJtx50rottZxMbs6J9KQKPK5V/t1HDvTf3itQGCFwAAAMhzlM23XGr4/O3DmbR7LhCE16SBKN7YUNXvxxBv1prvmjGt9Lvvh8uo4GwdaSk8ywazNSTIwXrn3Dk2a1RGfh8j7Z+zj48+/+jxELwAAAAA6BJfVXUdrxhgaghu2ZAqrJDNGTLuvuSTr9V2S9afNP3j4bMCr7x0jBqw9TfjXqnrCixb9GYvcKL8dZ5jwtfjnZcLa6Y3lExUxGb+eaq+/LPhELwAAAAA6BS1tKwpXlFFXIoIU/Qa8jZ7p9EVCwDB0/pJibeGeCKq9ddPxz9/f6fWB267rMRn/rimEvOZUkpRLDMG9+HaT8vXrE8Vr+jgYfvoSOk6RVM6tSaTZrvQzU3ykSIyUpny61cU200bs6WnqinWwxfQKLLq25H1M2dcC8ELAAAAgM4pizQkyyvn2Hf7HedkReANy4pBwfXDTQGntPSHpolHtbo7/3Rt+MfaYULzWf52LaNdlo1BRUdC1xnmmAOeWDiyip/1m6tbawYtM0dArnE3uXa0WaoxythfZ2Z7gwGVtJdfnNg4664p7fforXqF4AUAAADynUCZLsoqGtxFataStbQGK8wAtlJoyrxqTU0k4q3BcD9kdM3T90/x//eViZomA0s4XhjSg4xsikh7IZi9VFGh1iQnftAvZ0cmX/NHZeIpf01akcwVe3Y1ZwZCLC3b5XGVpUQode/Nlye/WjTC+63eqlcIXgAAAKAA8JdX1nN5VRfCs7Ar22KsL7HzaIn8fphgjX8yf4z+8O2XldrqkhjPlaAStsjlziQuNwxqGbTZkvCkc2+WWyPHnnFX86id3zCShlNqLEesXITjrMwJSGG+CH3/47DmO/5wHSViva5PIXgBAACAAiBQFmmwtK4V9MArdQtM8DL3jy2WWPpPH0qzaH2o6c7p15WvrRsaLPFb3gUUV+4yJYtlbAeTlr5/kylu2erGTMGrHHf63f7Nt11uCb3y6mh40vk3RTVfk1TFhqmKuRDevft5kCLaSF43PIcWZBQqU6jkjbnHRJ++5zwIXgAAAACsg1pS2iK8l3dXBIoCW7TmcUtmZbG1hYxE0t+XP9n46F0Xhd/774SgX7NlmmhvP5vF4jAfnAlSTBFupAQldtj5jYqJk+7zfid0wMTn9QMPe0ZPOMIv6wbe7aPQZeyLQ4KT/uhdFyc+fW8nCF4AAAAArCsh3AiuikeEFdzqNeaoF2FF7mKtMeJ63wne2PyX908+ctfFYUcxKcLIRAzLuujNzHLLV80+f0Po1AtuUCLVUbnYy7vgq/zMS2ZEhwxZzIy2g4bszk63XbxGhrBss0M/1A6rv3XaDN68NgjBCwAAAIA2AiJtwtDGjpcXXD7bzFr3oWYzomtCsZk3TI1EY9WWS620dHLNGFTP6yzAOTHDIJUbpMd00n920Jzw/ke+KDfJxV7eBV/alqOWKBNPur8p6Qpe6aPXcGZZM14e+la8szaPNmJXdfwrqwppfoV889+c0PRU75k2QPACAAAAhSADhWdeV3gmdgvNDS+zw/ZmtFLvZTDWblY09tBtl4c/eX/fYMAjdJnSgYjLSoXb/nTlwxS9zVUVq6pOO/+GrnYJT5z0QGzHHeaLpCtuWcZVWdbrVSFhDioMRSXDfC73Eemz7j83vmj+GAheAAAAADiyi3FX4TJXD2VRj/W94HOeee9N8YY8s6Lx+S/vbzx1/5QSJn8ih+WSyiihEwWOmnRfYNRPF3b51apN68tPu+j6hpJgvTCzKed4bXdmSvYbiiDPbLN5dIpCZWtqhzXe8adreXPdRkfTg+AFAAAACkz6rvuqUEWv66Wgd2cojYbaSJMptMJN0RrBWO4u/DNFodAFNW+z7Qflvz7r9m6J+oOOfpb9/BfPtiZEetyQE0GoXc8ilss3u059foUC77x2eMNjd10EwQsAAAAAJ6StRz8Uvtq1MtkXvnAbZl5/bfDTD/f2BZ1AwTmolrhBpMc4NQmFSiadexOrHlLX3X3LTr3o+qZBmy0xUilKJHXS3bsBaTve7KleZul4hXyqah6JSmUBhYxZ950bXzB3XwheAAAAoMhJRBvLmefuftqkoQB1rpszK48lYVI0n95bybe8/uJ4/R+Pn1Lmk7f7FdtsN0fsXNv4zTXrWU+Z9b77Ps+HDj5qVk/S8Q3fcUnwqJPvbXHMCARzA1IwyqbHCfcvY6bUlR445ENRqWJt06DG2/54nahfVQXBCwAAABQxemtLqS1yeWFn1A08YUUWE6SYgtcXCMRjvaBp9Lrvqpvvvn5qJBqv4kKxb/Vz0UaQZTfrmRGNdI/WVBmqi5x83k3MH2pT6d0pi8ixk2+L77jrazp31gEK4QnqkR2485c5gxrFsS5WNUal/1u419oHb70cghcAAAAoYhLRpghTHBtIsY5CLFwEt8RaqBf8rzX+9fqpZZ9/sgfze11csCzaNLSLTCbc2GScWlOC1MOOfSy428/faL9Xd8pCKS1Plp5xyYxoMFjPDE4Kc70+ZG+GV0m317bHIO2oAxqR9veHz4i//dIBELwAAABAsdLcHFGk2LVuw7PCFbzt9JjlZaAXDJZb/v33w8ULT00Kl6jkN9UVU1VTNapEqs8sTzVrYp6EYQlcLk0PDMNyQWYkdWrcfIvPyk6cfOvGJF/6swlzfT8/9Nlk3CBm6EQ698xoZ0f02o+Mr2N5NKqPkRZWKJSMVzXdcf1UvuZ7y7ShJ7P6ELwAAABAvmvAptpIsKU5Ytvw2oKFsUKe27VnPqUe1CPlRMGS2Makpq/8Yljz3TOmVaYSFSItjYR9qz+bgwaPUbY8KuF4D4upGpWeOOVW/9CRyzf2J8pOv/D6xGabLrV0tfUjIkdq2C15U/TaRsakaT4qXfzh3mvu+8uVHYx9IHgBAACAQoaZYtcXXbu/u56LiV6Nx5CDGc685Ex7njFlo8wZ6u6YMa18ydLRqk+zhJbr+4E58ZpFlhdyZXx2EaVMQZraZfc5ocOPf6g3fsG/1Y5LtF9Pvt3yUqbm4hBJZPzzmiOckKaS8fdHT2t45dlDwz0wY4HgBQAAAPKcVFNTRF1bT0yxl/kwxqhg9a6ryRRm3X1PhcNRJRDeYMEbe/HR4wNznz0q4LOD7boLw9KBmkUfxi7uVn5tm1Zp0qCnOK3xldQFTrngBiVUnuytnwhNPOm+2E92fS3RImS04hypZo/Yl2Y6wo2wp1AkEa+K3fXHaXrttzUQvAAAAECxCN61a6pZc0PadFdhzJkVK1CjBo+a1wO2OUPLBmga/dslQ/X7b7680tR8zOfYCzjusCg915vNwAzCI/8ENSfMT/Y99NnwuANf681fUUoHxAJnXjIjqmlNwsjBoZLrQUIRVmC9gF+hymVLxjTff9OVELwAAABAkaCs+naYJr0VUDvvAgU7z8vSMrSkvKKBNlDat9xx3fTQV8t2covKNmMQlsByJS85fmqzjW4YlNxs0LLKMy+Z3hfph/ecMJcf+qtZCSNHRzhcOOY6dq2UaObr52ZNap47+wgIXgAAAKAIaF65bGvGnUkwVgQhhSXcVqi+SOUa+banbsmaZt9zmvLvFyZqPkfscvLM52aCIAh30VSWdB45bshi5vEFjj39zuCWG79QTdKRh4OKMy66Prr5ZkuEoedYZWcGb1YwCi5nehUqTcSrWu+Yfp2+4othELwAAABAgRNf/tUIRZBjgSraCYVClL8Z/7QlkfKGHpfXV58Ob7nvlstLFFMn+1RTNZtySMuUlf3K/qf0sViyg/kKT54y73jK3JoyiLeaj21Gza88+pR7eut3Oxog+LbYblngpCm3RqV7MqGToZsP7oQbNt9bj2zcNZAmJtI9HLPNThRNI0XVSAtoFPn261GNM/88FYIXAAAAKGTWfF9VtvLrrVQ1IwWLBqmDKgfU9XS3htt+P6Pk+1UjFM1HnDFnYVi2siDSwxT5ircZsghLliZ8ajRw6gU3KJGB0b4+nsgRxz/UMnaPl/SkeSSMZ4Q4F1n00cvaDt6YG2ZZoaBfJfHys8c0PfvgpPZ7ee26IXgBAACAPCZR98Mg9bvluymWh4aikrvWAiZRWV3bI7H71MyzlDf/PT6okCV2mbv6P4tSzmtzzTxuuJgiKJUiSu43/vnQwcc80y/HExoQqzjj0hnR0rLVJDxWFZatTO60L+aUFzfrLpIwSuMzb7w68fWiEd7veN2WQfACAAAAeUxqySejWazVckmWEQIFjEdzsUAJsUhFt00a4l8s3D7+4G2XRgQvlXa50hbUKi/LcXF2JZE7r+saNchn6TChZUD5qvCpF9zQn8ciwxXrvzj6iZaEs4jPjWLCVMolExm3rcumH/nuuxHRmTdc3dl3IXgBAACAPKb58492VnT38t8uUEFBCl5H8Rrmy/Jy8oXLmrqzG481+ptvvW56Re2qEX6/jwJBzYmzILIuhzhlpiK9NRg3BWfysOMe07b/6cL+PqbS4866c83gwUuE7trw5o49uHdQpyiMtIAp0kOMfK++ODH69MwzIHgBAACAQtJ+8Sa/79MPd1XTEqlQF6l1kHfzkYxUklLaPcHb/MTdFwXenXdE0K85VrO8neTMVj5Ym1qz5bdCQtcpts3whdUnTrk1G8cVHDZyWeSks29tdme+rTjLPEdbgk2EG6XR+2+5Mr74f6MgeAEAAIACIbXym2Hqks/29RXh1VxO9LZWDnyRuuGlIfHBa3u0PnjXxRHHVlZ1Yqq1lUOs7Zihvx4e78m2rrQNGpqZSqGTz79JGbTlqmyVcWTipPsSY/eck0w63hncdsZy6OGWnlxQZ54IFatWb1V3+/TrKN6sefOiobsAoBjgmZUHrP0MkEDxZPOKze2LiLzIySVHqnwrBCYjQLeIf/TOXr5Ya/Gcxcw5ZYQ92ahWD1rNfF2HFeZNdaVrb5t+XaSuaZAeYqTohpWIUBTbPtUbkY617RkZrT+ER/tQH531qu17XeZ5Jw/DYCztBYGlOKX2OeCZ8kMmzspmcWuh8mTF6Rdd3/Tph7tWx1pqUrLsFcOe7O2iPNZXFh19jzq4KrF2r6mD+pB1yJwWIMyGoZq9p/+1eUfUz7r3vKpTLrkFgheA4lFVZk9qZLoHK/ao4ukubLc31kftn4m63ra+7evbl/ooXe6ZtOntdJUOXm9outxTP0yxVosr5gVP4Qb6ZtAhMliA13+q8t5/9wvIVqSxourShGNSGt508Lfr+3pi1l8vqPjovf2DYbmfcBZhyXSMzpVWP+bFVXMyoAKXx5YiaiwL15aefM7NFCjLegQIuYAtMf7Ip+NPP3qez7qEGLlnNOOxupCva8wetOGROy/Wx+75mraDbf+MThWAYrlCpIWZoLb2aqKtSGz/vL5tG7tvvqXbldnfhqRrTVfYV3BVcOeuIWbdQcd4xa6+aukQZeF746Q5g1Fk5eBOhqpDtlzW5QDhrZcOaH34josjZgElmO2IQeTQ6WXdb+OuVzRhVW7ClLjsiOMeC47d/81cOc7wyefe1DT/tQNCS78dydRcbRRkVa5w2kfwhzVD6267bvrAGx46lsrLoxC8ABTBlUE3Hyl5C8/yOen2DLTuPafO7i11dj+PUfdnSHLhu72Rdk++v57vWTNN1myv7ZBI3i7UzUdMKBwNF6yPlrdeHa/W1g4nKUCMIiyAoI+UTTZd2eVQv6SsKXTxtMu55tOtWWE1t84teTNemjAJy25X5SQMReNCCe2x/9xcOk5t85HLQ9PuOF0s+3IEBXw5FndYZIYOzJrUUYRjKhaSXWw8HjQ/heAFoLAR1KoblDzoyIcCB098inHhrrQ1uwKFuyNikLX6UZg1I8GsavFz82JnCGWTmsErUTZgvbzywpFB6TIqqJBS4FbfwvVl4JgzGCmixGYDqHTgoNVd7Rces+cCkg+w8eOLXfZ5m+Qjn47ZK9pRhQAUNklDEN9m+0+Cex/6EkoDgMKg9b3X9xCLPthN85O1eosphb/OMS16yTa/bamqebu0umY1WgPoDlgJDEChI68PxrqzuHLxSwv6AADykpbnnjg5GI1VF+O0lcKEZb+rbbbFMlY+qAGtAUDwAgAyorcdcvFLOJve1gEAG4QMj5t4+5XxQSl2hbOCiBeXaZJ0bBLYatvP0RpAd4FJAwCFPqqVNqIG3FwBUChEn33s1JI1a4YaJX47XIKMj1tEtvjStZguVyEM3WopWgPo9rUQRQAAAADkB8kvPxrJX31xYkgly+sKd+/esML2w8ucfxZcULKyhILrcUkGAAQvAAAAkIc0PXLXxaU/rt6KW5HGXF9kbrSwwkU4/1xim2z+AW0+DIIXQPACAAAAhURs3j8O5a8+PzHgV0jRNFKYYoXYdXyQFnTemSd/uk5UMnzbz9TKTevRKgAELwAAAFAg6HUrq1vuufHqqmRrNZFKAZVZ8SZYxul+Qec/45JMWE5n/CN2+AStAkDwAgAAAAVEw93XXxv67NNxmqZZ5rrMcrBShEFjOKd4WZCC2+24EK0CQPACAAAABULz848cb8x+clJIY86F253VpaIRvcyayxaW4I0NHPwxDd9+EVoG6AlwVQQAAADkKMlF88ck7/7z1GpFj5Cm0rrzVAVqyiAyLsKlJwo3BDdPCgptt+NC/6AtV6F1gJ6AGV4AAAAgh2gSQgYMptTKpUPWTv/t7RU/rhypBqTjWVZkJSEsPS9dDEvfuzL3SU2hwI67vIdWAiB4AQAAgDwmwlgy/sO3NbXXnn9/5ZKP91A1jbjBistklzmCVxozOFmXz40VlaTuvNvbaCUAghcAAADIY/TaldU/XnXWo2UL3jnIp6lkSKe7TJiCr4hmeB1xzx0PFNLjMDd0UrfaZq5vq+1gvwsgeAEAAIB8Jbnii2F1U6c8PPDDdw4qDaokpK9dhRWfNYMjUYSZb0MIMpKcEimi4I5j5ysl5Um0FADBCwAAAOQh8QWv7t3w21Ofqnr/zQlBvxS7dgQ1lg4uUUw2DZ68M9ucoTkUIt9ue72OlgI2BHhpAAAAALJM/RN3TknePmPawHi0RvVrlhmDdMVlR1KT7rgMIkUt9PgSbQUvsx2wyWfL7fDQrd/WRu2yAK0FQPACAAAoTJj7R3g/yHuSyxdv1Xj3n6f6/v3sUdWclyp+xfJIoDBmRxazVmxxR+wWkV2DtFtWuG3KYWY/aup97Sdj52tl1VGcDACCFwCw7nVDOmxnKAdQGFguqmzBy/M5H0a8WYs9/+Sklsfvvrj8m69HlQTl5VihDi0NWRFaHwpb9DKVk2oIagn5qXyvA17GGQAgeAEAHQKtCwqiFUs/rJanAnLW7Yu8VIG6FLqv/+vw2NMPnO3/+P0DqplOStBvRRFjwihOcdul6lWIG5z82273ZmjMHm+gTAAELwAAgIIWvWljBu59lx+k1nxf1fravw6Nvfj0CWLRewdFEgYp0jTVp5Lq5g5iN4MsHDkAMAc6LeZb/88O/JcaroijYAAELwCgE5kgTf/y+/YvKHZEui1bi/YthZj79y5Ea5O/9bMPd029/q/D9HfmHaQu+3LMQN3MQVAjHtLIMF+qlqVuYdkl907hSdsVszxSnBJVVStL9z/0WRQKgOAFAHQNF5g6AgXWpHPwoFIxxaj9bkjrl5/upHzy/k/5grf2Ti37Yu9gS4zK5RkohboUu9K3LtmTmGkvDBC77SqYrMLRdbPYdh73ZnDE6M9QKACCFwDQOdL2UVMwwwvyuA2zNmvU5J1uLVtDuESLwvVE0EimNFq7pia16pthTd8uG659s3Rb/+JFOxnffr2/0rSWtKRBJVLG+sw/AcUWtVKlG4Z5PloBc4kJ0U7sQvSm9a4pdhWzPOIlKvkPOfpxlAiA4AUAdAGjgE+lprdeOeS7lpYy4sywvBwJrgrXzZOw7Qet5SHymszsZ6+ve0tvuA7gO9pGmes2cz5z33c33TZ3dT37svbpuqKnB+kyWveYWC8cb7fSpcy+7dO1F19xhTNmSiHVMJWcaui6Jrbe7tOfnHz+E2i/DgprIwZ9flMILflk9KqZ068SUkTqycA6Zd+uLVEP26iwbYGsc4OZdaI2NVZoyXhQa1pbpaytO8KoX0MUjZKSiFMwliDN1ON+cxdV7uezX1iz0Ck5sSsyP6pIocs9+laB0O14nE7cEMRH7fBm2bh9X3E/j5kFFrLnfwGA4AUAZPCrKkUWLtg/9d6C/V3R1ZmBg5xEk9usZ9ZOMLhioaNt1G670nZbd9LtSPD2VrpMrLtvv6XbwWfeZ1eccfN90hRHqSTR2oMOeIYgeNsM3Gx7APuVdOGlLV86xn/3DWOIdVL2vdFGPeeFtBuWdSUHjPJINPc70i6hxPGRy5ineTAnCZgrdFPi2n/dQWVKUNQ8H/jBR/yNhSvTi9UgdgEELwCg0+uIX9PMR3sBIVA2Wce8dhvcMeZUKKUZlDJHJAm/pqNsvE2YrdNyfeZAzlfSn0LS/WVbwLrHxNrINUp/2vaIQcf1KpyyspyyOa7Z7Gc5CZ4aNmRxxQFHzEZJAQheAEB3NW+7WSdchHMD+xa3nBmU6wo54/bFHl41OmjB3rbszp0qfeyejLX77fbTyUqb7TirNqR0hVOu7kBCWKWakJ+MP/JpddCWq1BSoDfAym0AiuLCwqjtrJNod9lZ3zPLge9Sjny3t/NIGaNRt1oQGm+d9uv917bGWB/Wn1injbC09O0sPdRdTwcylkkPOTGEzXcpw6DWwYOWlR/+60dRRgCCFwDQY9mwrsjzXtQ7M6qlLrb1dJ/2+/YkXdaDdFkfpit6kK7oXvkyO+YApNLGiqfebqNtRW/mDFLaDSDbvwPdgXvOPWG+E47XilTSFL6/OOYx37Dtl6KUAAQvAKCHYrf9Rb397dmOnte3bWP37at0RR+mS72YLusiPbBhorc367yr2eDO9kU99rTGLJMGbgXIsWx3W7bYclHFxBPvR+kACF4AQC+L4c6e17dtY/ftq3SpD9NlfVgOoHfb8cbWDehbAZJZjsiZ/TolBPkmTrpXGzJiBUoIQPACAHpBEHRH9K5v28bu21fpsj5Ml/qoHLxglrB3Bm19UTfdEdlg/cggHDox86GSQdITdSyq09qttp9f/stfP4LyAb0NvDQAAAAAICua132hmIK3RVEodPxZt7PKQQ0oHNDbYIYXAAAAAP1POp4Io1RSkLHnPs9HDv7VLBQMgOAFAAAAQAEpXhOdU1Nl+arKMy+6ngXD8EENIHgBAAAAkJ+I9D+yXJAZBlneGaJJQf6jJ90XHLPP2yglAMELAAAAgLylTZxHxiwFYphiNzl6zBtlJ557M0oIQPACAAAAIK8RToQ6d62aXKjWHImsDp1z+TTVWagWgy4BfQS8NAAAAACgTyRuxhWDQsx6aZvoMs6pKWW+OGrSfcFxB89z9wi5XwCgl8FICgAAAAB9I3hl6LS08DWk8S4xU9PGk5xiu+42LzLpvJtQTgCCFwAAAAB5CrNtdR3xy4W021VI6JyigzdbUnHZHy5V4HMXQPACAAAAoCCEryV+7ddrA8H64AVTrw5uv9tClA2A4AUAAABA/iNsw9xkyqDaliTpx0+5tfSQ42ajYAAELwAAAAAKQ+0yZokNU+tS8oAJswaefukfUS4AghcAAAAAhSF2Hd+78WSKWnfe5bVNrrrxXFZSpqNsAAQvAAAAAPJc6Np+d6VXBj2RosYtRnxQ87tbJ/sGDq5H+YBsAD+8AAAAANhAbWvYz9ZEruK4IbPfGylOeoug5i02XVp57c1n+7cetQQFBrIFZngBAAAA0Au4Ylex5AXTBUUHVq4sm3rjuf7Rey5A+QAIXgAAAADkH8x1N2YbMnBT7Ep3u4aeooYB1StKr7tlcnCvX8xFQYFsA5MGAAAAAGyo4k2rXTm/qwvDCizRUF2zvHzqX84O/uzQl1BGAIIXAAAAAPmLsOZ1STDVWqTW0swptvmmSyun3jy5ZK/x81BAAIIXAAAAAHkOt8wapGVDMqFTdMTwhZv87pbJgdF7wWYX5BSw4QUAAADAhiGVLglqbU1R4067zdvkLw8dC7ELchHM8AIAAACgE6RxrpERt8L1smtvMlIGtZibkweOf3rg5ddfqG2yxWqUGYDgBQAAAEC+SF1ilsL1uBtzBK+imlsMTmuZEhUnnD5z4AVXT2WhijhKDUDwAgAAACDvJK+pbs0n57X5LG0hU0mDmjcZtCww+fJpkSNOfQRlBSB4AQAAAJBnUleY8pZZs7tyflcIlRRp0mAkqUUniu+2+9zSS/9waXDkLotQWgCCFwAAAAB5i7TelbO5PsWgRIqoMRSsZyecNrP6jEunK5EBMZQQgOAFAAAAQF6jOhYNLabYjW0/an747Cumle6DYBIAghcAAAAAeY90N8YpldCpsSyyWj3yxAeqTr7gBq1qUIPc2mLqYPmNkB1gDQAIXgAAAAD0PcIjVdelC13K7b2F7ZOBFOmVQefUaL5OjP3ZnLIzL55RMnb/N727hCF0AQQvAAAAAPpf8Iq04mUiI4ItAWwY9jtrXpa13csQ1vetGBLm1xpbiVpGDFsUOXHKrQN+efwjajCSROkCCF4AAAAAZFnsOlrXCg5hz9ZKFSuEHQmNKYpX/jrq1jZbYIqc0RWUMmVtbIvNF4vxE5+uPvrUu/2DhiGIBIDgBQAAAEBuwNy/wp3nddyKuc+KZm4StuGCsIWvNaHLORlxQbGaqpXKhKOeCE085V7fltsvRYkCCF4AAAAA5BwiE/TXErO2sJVzuIJSCUMa59qBI8zPdZ0owYlaB2+2RDvgsGcqfnnso75tdv4MpQggeAEAAACQs3LXa7IgKBM8Qn7i14QVCjhpCt1mhSg6dOuPA4ce82jVhF/NCgwZvhLlByB4AQAAAJDjctc1anAFr3Dec+KGQXFT6OqlZauTo3/6tu/gI/82ePefv6QNsF2MAQDBCwAAAIBelaYZLwleR2KdvfbuIzpMzd0mTRistWjy2dCp1RS5yYBGfPPhC1N7HTgncuAv/x7ZcdwHqAMAwQsAAACA9SKd0CrtZGfHwlas+7kQ7d4zx2GCcHbzimKyPSq0327uoxtkec5Ny+IEkfmfWv3m5zWbLDPG7P6mf99Dnov8dJ95aiVmcwEELwAAAAB6hPDMw7K0vey6M7WsizRcF2G2E1yhyllaU0pz5qhpZovcNhraSVM1L+DydcoWubGAn/igmsW+0WPns932/k/ZLnu+5hs6YgXqCQAIXgAAAGCDUByRa82xOjOu8pkJx/+tpU0Va/JWZJzk2hKX8TaCNzPhK2w/uqorlJ3X1go0biteU+Aa5g4tPoVS5VUr/MOGL/HttMsC/y57vl4yYseFSs3QWtQOABC8AAAAwEaTMViwBanl4ZZLTWuKVm77uzWsIBC2oBXkVb4ey1sh0kJXfp1zbtviCjs96T7MMD+PlgTIqKik0Gabz/MN326Rb6dd3/Vvu9PC4IjRcCUGAASvF2b1Nax9VMWiyDkAIG+ElEAZ5IvkFR6TBTnf687gph2EOZUpTBGrMJbWujKUr7W/sC0WuLRiMOzov4ZClAz7qKUsQtomm84PDhm2LLDltp+XbbvDx8IUuiWbbLaSlSDULwAQvF10TiwjfZ01AMLupApx7kEIiN0OioWRt1ygLEAONErnwdIPZ2Dew77NElfMc/4ztO++nUhwzBncPkV469OujzYecQ17JtgSt+YnPOinRDhCsUAJGZHKt8NDhqxgm26xTKvZ9PvSzYYur9h8q6VK9Sar/JWbNKG0AYDg7cm0iaInE3MSrTSBa4Y1qlYUw9qkOIP0Qrk8sEyfa8VG15Mpv3wdM7MasvvaItUWXEnEE5RstS865NeJKegEQA6cq8zsk8z+SDfP14RcaZ9IBrubRiqZ9LeabVr4dNKslfzOBiWFIV0fD1XI61TBz8gIBMiQIXyDJZTyBUg3n+OBEKllZXNKKqrqfVU1q5Wq6h9FRVVdoLqmtmzgoFXhqgF1LFJV5ysbEEOpAgDBu/EES/Wyo0+/m/Y64F/Srsq6ziiMWyNubwdWIBdRM4eKtXBCN7Sy4Tt8LD8varFropZV1ofO/M0JRuOPNZwUTkzVMQUOsnquWg+uWHO78o3BFc3QtQFDt1nc3TRKzX6Nj9vv38IfSOr2LLFie7piHIK3bwfQoizSJErCUVneaiAY94VKYj7Vl/SFSqPCfE+hUFSUlTcwzacrQZghAJBdbQSDMQAAAAAAUMDghi4AAAAAACho/l+AAQCtZ60Nq0h1EAAAAABJRU5ErkJggg==;fontColor=light-dark(#000000,#000000);fontSize=24;" vertex="1" parent="1">
          <mxGeometry x="903.33" y="652.3" width="247" height="73.4" as="geometry" />
        </mxCell>
        <mxCell id="KbrCq-wF8VvZH-ui4hy0-38" style="edgeStyle=orthogonalEdgeStyle;rounded=0;orthogonalLoop=1;jettySize=auto;html=1;fontColor=light-dark(#000000,#000000);strokeColor=light-dark(#000000,#000000);" edge="1" parent="1" source="KbrCq-wF8VvZH-ui4hy0-13">
          <mxGeometry relative="1" as="geometry">
            <mxPoint x="940" y="150" as="targetPoint" />
          </mxGeometry>
        </mxCell>
        <mxCell id="KbrCq-wF8VvZH-ui4hy0-13" value="Flutter" style="shape=image;verticalLabelPosition=bottom;labelBackgroundColor=none;verticalAlign=top;aspect=fixed;imageAspect=0;image=data:image/png,iVBORw0KGgoAAAANSUhEUgAAAZAAAAEsCAYAAADtt+XCAAAACXBIWXMAAAsTAAALEwEAmpwYAAAUnUlEQVR4nO3dW4xd11nA8W+tfcZjO7Yn8S0lbhJBhYTEG3kpfQjjhEog9ZLQFloiHpB4aQBFqioQaisstUkrLiltEMVto6IoiXNtC0KIEpGxeOKFBig0KZOXpIQH0Nw8M56Zc1s8nHPmftnnnL3Xty7/nzRyYmnmLEt7+++119p7GwEQhOkZ1yjeWXtUjLtPeyzZcObVzqUTn7l+2bS1hxIjoz0AAIN4rD4mxlzWHks2iMfYCAigjHgoIB6VICCAIuKhgHhUhoAASoiHAuJRKQICKCAeCohH5QgI4BnxUEA8akFAAI+IhwLiURsCAnhCPBQQj1oREMAD4qGAeNSOgAA1Ix4KiIcXBASoEfFQQDy8ISBATYiHAuLhFQEBakA8FBAP7wgIUDHioYB4qCAgQIWIhwLioYaAABUhHgqIhyoCAlSAeCggHuoICDAm4qGAeASBgABjIB4KiEcwCAgwIuKhgHgEhYAAIyAeCohHcAgIMCTioYB4BImAAEMgHgqIR7AICFAS8VBAPIJGQIASiIcC4hE8AgIcgXgoIB5RICDAIYiHAuIRDQICHIB4KCAeUSEgwD6IhwLiER0CAuxCPBQQjygREGAb4qGAeESLgAB9xEMB8YgaAQGEeKggHtEjIMge8VBAPJJAQJA14qGAeCSDgCBbxEMB8UgKAUGWiIcC4pEcqz0AwLfpGdew/736ReLhEfFIEjMQZGUQD2PNtPZYskE8kkVAkA3ioYB4JI2AIAvEQwHxSB4BQfKIhwLikQUCgqQRDwXEIxsEBMkiHgqIR1YICJJEPBQQj+wQECSHeCggHlkiIEgK8VBAPLJFQJAM4qGAeGSNgCAJxEMB8cgeAUH0iIcC4gEhIIgc8VBAPNBHQBAt4qGAeGAbAoIoEQ8FxAO7EBBEh3goIB7YBwFBVIiHAuKBAxAQRIN4KCAeOAQBQRSIhwLigSMQEASPeCggHiiBgCBoxEMB8UBJBATBIh4KiAeGQEAQJOKhgHhgSAQEwSEeCogHRkBAEBTioYB4YEQEBMEgHgqIB8ZAQBAE4qGAeGBMBATqiIcC4oEKEBCoIh4KiAcqQkCghngoIB6oEAGBCuKhgHigYgQE3hEPBcQDNSAg8Ip4KCAeqAkBgTfEQwHxQI0ICLwgHgqIB2pWaA8A6bvnqps4sUY8vCIe8IAZCGp1z1U3MXVy9THi4RHxgCcEBLUhHgqIBzwiIKgF8VBAPOAZAUHliIcC4gEFBASVIh4KiAeUEBBUhngoIB5QREBQCeKhgHhAGQHB2IiHAuKBABAQjIV4KCAeCAQBwciIhwLigYAQEIyEeCggHggMAcHQiIcC4oEAERAMhXgoIB4IFAFBacRDAfFAwAgISiEeCogHAkdAcCTioYB4IAIEBIciHgqIByJBQHAg4qGAeCAiBAT7Ih4KiAciQ0CwB/FQQDwQIQKCHYiHAuKBSBEQbCIeCogHIkZAICLEQwXxQOQICIiHBuKBBBCQzBEPBcQDiSAgGSMeCogHEkJAMkU8FBAPJIaAZIh4KCAeSBAByQzxUEA8kCgCkhHioYB4IGEEJBPEQwHxQOIISAaIhwLigQwQkMQRDwXEA5kgIAkjHgqIBzJCQBJFPBQQD2SGgCSIeCggHsgQAUkM8VBAPJApApKQe666ialTa48ZcdPaY8kG8UDGCEgiiIcC4oHMEZAEEA8FxAMgILEjHgqIByAiBCRqxEMB8QA2EZBIEQ8FxAPYgYBEiHgoIB7AHgQkMsRDAfEA9kVAIkI8FBAP4EAEJBLEQwHxAA5FQCJAPBQQD+BIBCRwxEMB8QBKISABIx4KiAdQGgEJFPFQQDyAoRCQABEPBcQDGBoBCQzxUEA8gJEQkIAQDwXEAxgZAQkE8VBAPICxEJAAEA8FxAMYGwFRRjwUEA+gEgREEfFQQDyAyhAQJcRDAfEAKkVAFBAPBcQDqBwB8Yx4KCAeQC0IiEfEQwHxAGpDQDwhHgqIB1ArAuIB8VAQaTzuu3bzfabT/QXtcWTDmvmzjZPffPFXTUd7KDFqaA8gdcRDQazxeGbtXtPtfkmMmdAeSyYWOp32wy/+OvEYFTOQGhEPBTHHQ7pfEhHi4cdCp9t++PpvTL2pPZCYEZCaEA8FxAPlEI+KEJAaEA8FxAPlEI8KEZCKEQ8FxAPlEI+KEZAKEQ8FxAPlEI8aEJCKEA8FxAPlEI+aEJAKEA8FxAPlEI8aEZAxEQ8FxAPlEI+aEZAxEA8FxAPlEA8PCMiIiIcC4oFyiIcnVnsAsfqp26QrTqL6iyxqxAPlEA+PmIGM4WMvuGKuufYFY9wvao8lacQD5RAPzwjImIhIzYgHyiEeCghIBYhITYgHyiEeSghIRYhIxYgHyiEeighIhYhIRYgHyiEeyghIxYjImIgHyiEeASAgNSAiIyIeKId4BIKA1ISIDIl4oJzFTrf9SeIRBgJSIyJSEvFAOcQjMASkZkTkCMQD5RCPABEQD4jIAYgHyiEegSIgnkzPuIZ9Z+3zRKSPeKAc4hEwAuIREekjHiiHeASOgHiWfUSIB8ohHhEgIAqyjQjxQDnEIxIEREl2ESEeKId4RISAKMomIsQD5RCPyBAQZclHhHigHOIRIQISgGQjQjxQDvGIFAEJRHIRIR4oh3hEjIAEJJmIEA+UQzwiR0ACE31EiAfKIR4JsNoDwE7XL5t299KJzxkx/6g9lqHFGo9rN98n0vm0c1JojyUTxCMRBCRA1y+bdvuOE5+NKiIxx6PrvidiPihWlpyTrvaYEkc8EsIlrIBNz7hG43/WvuDE3a89lkNFHw85tfmbRl6RrkwZwz+uakA8EkNAAhd8RFKKxwARqQPxSBABiUCwEUkxHgNEpErEI1EEJBLBRSTleAwQkSoQj4RxYkQiqIX1HOIhIuLk/Sysj2XRSvth4pEuZiCRUZ+J5BKP7ZiJjGLRSvvhVx6amtUeCOpDQCKkFpEc4zFARIZBPDJBQCLlPSI5x2OAiJRBPDJCQCLmLSLEYwsROQzxyAwBidz0jGsU76w9KsbdV8sHEI+9iMh+iEeGOAEid/2yaXcunfiMOPNq5T886njI30sd8RBhd9ZexCNTzEASUflMJPp4uNO1fxgzERHikTUCkpDKIkI8yss7IsQjcwQkMWNHhHgML8+IEA8QkBSNHBHiMbq8IkI8ICIEJFlDR4R4jC+PiBAPbCIgCSsdEeJRnbQjQjywAwFJ3JERIR7VSzMixAN7EJAMHBgR4lGftCJCPLAvApKJPREhHvVLIyLEAwciIBnZjIiIEA9P4o4I8cChCEhmpmdcQ6T3CBTtsQzj/mdv/rxz8r2o4jEQZ0SIB45EQBC8qOOx5RVx0USEeKAUAoKgJRKPgRgiQjxQGgFBsBKLx0DIESEeGAoBQZASjcdAcBFxzi0VpvNJ4oFhEBAEJ/F4DAQTEeKBUREQBCWTeAyoR4R4YBwEBMHILB4DahEhHhgXAUEQMo3HgPeIEA9UgYBAXebxGPAWEeKBqhAQqCIeO9QeEeKBKhXaA0C+iMce7xEjP5SuHKsjIsQDVSMgUDH99M33GpF/IB57vEeMvF51RIgH6kBA4N300zffaw3xOESlESEeqAsBgVfEo7RKIkI8UCcCAm+Ix9DGigjxQN0ICLwgHiMbKSLEAz4QENSOeIxtqIgQD/hCQFAr4lGZUhEhHvCJgKA2xKNyh0aEeMA3AoJaEI/a7BsR4gENBASVIx612xER4gEtPAsLlSIeXr1iRLpW2r9LPKChoT0ApMUa95CIEA8PXKv5c7PfffbVH8/+31vaY0Ge1F+nibTcO3vyERH5lvY4Uudazbk3X3pybW3+fz927pz9O/nZK8e0x4T8EBBU6soV07139uRvCRGpjWttzM2++I219Rs33i0iYq25/8LtJ/5W7rk6oT025IWAoHJEpD6utTE3+8I31jb68TDGiikKsda8/+Jtq39DROATAUEtiEj1XGtj7s0Xv76+GQ/bj4dpiLGFGGt/6eL55l8TEfhCQFAbIlId19qYe/OFq+sbN25cEpF+MBr9eFgR0/sypvjl8+fdt4kIfCAgqBURGZ9rbsy9+fzX1jduLPXjYfsBKUSsFTFFLyBixRkjxsgHzl+0LxMR1I2AoHZEZHSuuTE3+/yfb6wPZh79NQ9jCzGm6MfDSC8eVpzrf59zHzx3oXiJiKBOBAReEJHhuebG3OxzT2w0l1fuEBERW4gUDTH9NY/BZSsRK062xaN/f7AT+dBt54sXiQjqQkDgDREpzzU35mavfXWjubJ8h8jWZStrit6ahwziYXozj83v3PVwCWM+fOv5xgtEBHUgIPCKiBzNbazPzV77s2Zz5cbOeNhix4K5iBHZftnqoB9o5AEigjoQEHhHRA7Wi8eXm83l5Z8Q6a95DOJh+gvmsm3mseuy1cHMA1PnJp4nIqgSAYEKIrKX21ifm3328WZzZRCPYmu31T4L5lI6Hn3GPDh1YZKIoDIEBGqIyJbO+s35Hz3zJ63NeNjtu60Gl60G8TBDzDx2ck6ICCpDQKCKiPTiMfvMnzZbyzfeJdK7bCX9bbpbW3UHu61Gj8cAEUFVCAjU5RyRXjz+uNlcXnqXiPRCsX231ebMw/Tisfmd473Kh4igCgQEQcgxIp31m/OzT/9Rs9mfecju3VayddlKDtuqOyIignEREAQjp4h01m/O/9dTX2wNZh5bjyfZtk13sOZRwWWrgxARjIOAICg5RKSztjL/o6cebTWXb9wusrVVt7fmsXV3+WDBfKDqeGz+XCKCEREQBCfliHTWVubf+KtHW60d8bD7xMPs2m1VLyKCURAQBCnFiHTWVubf+Nbn262VpV48rNnabbXrDvNxtuqOajMi0zMNLx+I6BEQBCuliHTWVuZff/JKu7Vy46LI1lZda+2uBfOdjyepasG8LOfkwanjb71ARFAGAUHQUohIZ215/vUn/7DT7Mejt1XXit12f8fWVl29eAw4Jw+ennybmQiOREAQvJgj0llbnv/h1z/Xaa4sXRCR3lsDN9/lsXu31dbp6Ouy1W5u67N/hYjgKAQEUYgxIp21lYX/vPrZTnO1Fw9jTH/B3PYXzPv3eOzZbeWb2RaOHeEiIjgUAUE0YopIZ21l4T/+8g/azZXFfjzs5nOtNHdbbdmKhuv//wGICA5EQBCVGCLSXl1a+MHXfq/TXF7YjIf0w7H78STiKx5mEIxS0diNiGBfBATRCTkivXj8fqe1snRepHfZSqwVa3sL5zt3W5naF8y7zkjXWem4wRrLyJ9DRLAHAUGUQoxIe3Vp4d//4tOd1srieRHpBWP7gvmO3VZ1xcNIx1lpuwlpuYZ0pdixOD8mIoIdCAiiFVJE2qtLC//2xKe6reV+PIzZXO8wmw9E3NqqO1DVbquuK6Qlk7LuJqUtx6Q73mzjMEQEmwgIohZCRFqriwuvfeWRbnN18ZyI7I2HqSceHWlIU47LurtFmnJcutIQT/eOEBGICAFBAjQj0lpdXPjXrzzSbW3GY7/dVmbza3DVatR4dKUhTXOLrJkp2ZBbpCPHtO4ZISIgIEiDRkRaq4sLr335d1xzef6cyM77PMRuWywfLJj3v2/Y3VYdaUjLnJJ1e17Wza3SNserXNcYBxHJXBBHIVAFnxFprS4ufP/x33bNlYWzIju36m7dINifdezYbVWOMw1p2jNys7hd1osL0rKn+usawSEiGQvyiARG5SMirZWFXjyW57fFw+yMx+DxJMZsm3IcfqnJmQlpF7fK+rFLsjZxSVrFlDgTxd/LRCRTOg/cAWp25Yqz//TTN78pIr9Z5c9trSwsfL932eqsiPReP9uYEGsbYosJMbYhpmiIsQ2R/js+jC1EbGPrvwe/ihVTTEpnYko6xRnpFierHKqGby9v3PVrcv1yW3sg8IOAIFlVR2R3PMQYsUUvHHZbOAZfIv07z21ja2HdFuLMhLjJs9KduE26jVOS2GlIRDKS1JEL7FZVRPaLhzG2F5D94mELMdK/kdAWYotj0p08K91j58VN3Nq/xJUsIpKJpI9iQGT8iBwUD2OsmKLoBWR3PGwhYhpiTlwQd/x2cZNnRUxR5R8rdEQkAwQEWRg1IofFQ4wRYxu9dRDbECkaYvrRMLdcEnf8oojNel2ZiCSOgCAbw0bkqHhsBaQh5uRFsafuFDl5h0gxWecfIzZEJGEEBFkpG5Ey8bDHz0px5ifFnrlbpDghInpvEgybeXl5486PE5H0cLQjO0dF5LB42MkpKc7cLcWZu8UcOyPO2G3v8+B0OhgRSRFHPLJ0UET23ap77LQ0ztwpxZm7xR4/u/loduIxLCKSGo56ZGt3RLbHwxSTYk+/W4ozd0nj5IX+rqqCeIyNiKSEIx9ZG0SktbLwwGtf/VSn1Tl23p66Q4qTF8QMbhAkHhUjIqng6Ef2rlxx9ol/fvyp9ZXWQyKmd9f44AZB4lETIpICzgBARGR6pnFL51++Y4x8gHj4QkRix1kADEzPNE6bH7xsrf0Q8fCFiMSMMwHYbnqmcWvjjZfEFh8mHr4QkVjxPhBgu+uX24vtn/moiPkO8fDFfeT05I+f430i8eGMAPYzPdOYmnzrOSfyERHi4QczkdgwAwH2c/1ye2nj7o8bKy8TD1+YicSGMwM4zPRM4/Txt6+Jk49qDyUfzERiQUCAoxARBUQkBgQEKIOIKCAioSMgQFlERAERCRkBAYZBRBQQkVAREGBYREQBEQkRAQFGQUQUEJHQEBBgVEREAREJCTcSAqO6frm9vH7XJ8TIS9pDyYf7yOnjb1/jZsMwMAMBxsVMxD8jLy2v3/UJZiK6CAhQBSLiHxFRR0CAqhAR/4iIKgICVImI+EdE1BAQoGpExD8iooKAAHUgIv4REe8ICFAXIuIfEfGKgAB1IiL+ERFvCAhQNyLiHxHxgoAAPhAR/4hI7QgI4AsR8Y+I1IqAAD4REf+ISG0ICOAbEfGPiNSCgAAaiIh/RKRyBATQQkT8IyKVIiCAJiLiHxGpDAEBtBER/4hIJQgIEAIi4h8RGRsBAUJBRPwjImP5fzUujlqNa2+lAAAAAElFTkSuQmCC;fontColor=light-dark(#000000,#000000);fontSize=24;" vertex="1" parent="1">
          <mxGeometry x="876.67" y="230" width="126.66" height="95" as="geometry" />
        </mxCell>
        <mxCell id="KbrCq-wF8VvZH-ui4hy0-14" value="Personalize" style="sketch=0;points=[[0,0,0],[0.25,0,0],[0.5,0,0],[0.75,0,0],[1,0,0],[0,1,0],[0.25,1,0],[0.5,1,0],[0.75,1,0],[1,1,0],[0,0.25,0],[0,0.5,0],[0,0.75,0],[1,0.25,0],[1,0.5,0],[1,0.75,0]];outlineConnect=0;fontColor=light-dark(#000000,#000000);fillColor=#01A88D;strokeColor=#ffffff;dashed=0;verticalLabelPosition=bottom;verticalAlign=top;align=center;html=1;fontSize=24;fontStyle=0;aspect=fixed;shape=mxgraph.aws4.resourceIcon;resIcon=mxgraph.aws4.personalize;" vertex="1" parent="1">
          <mxGeometry x="820" y="470" width="108" height="108" as="geometry" />
        </mxCell>
        <mxCell id="KbrCq-wF8VvZH-ui4hy0-24" style="edgeStyle=orthogonalEdgeStyle;rounded=0;orthogonalLoop=1;jettySize=auto;html=1;fontColor=light-dark(#000000,#000000);strokeColor=light-dark(#000000,#000000);" edge="1" parent="1" source="KbrCq-wF8VvZH-ui4hy0-15" target="KbrCq-wF8VvZH-ui4hy0-19">
          <mxGeometry relative="1" as="geometry" />
        </mxCell>
        <mxCell id="KbrCq-wF8VvZH-ui4hy0-15" value="&lt;font style=&quot;font-size: 24px;&quot;&gt;GITHUB:&lt;/font&gt;&lt;div&gt;&lt;font style=&quot;font-size: 24px;&quot;&gt;Source code&lt;/font&gt;&lt;div&gt;&lt;font style=&quot;font-size: 24px;&quot;&gt;repository&lt;/font&gt;&lt;/div&gt;&lt;/div&gt;" style="dashed=0;outlineConnect=0;html=1;align=center;labelPosition=center;verticalLabelPosition=bottom;verticalAlign=top;shape=mxgraph.weblogos.github;fontColor=light-dark(#000000,#000000);aspect=fixed;" vertex="1" parent="1">
          <mxGeometry x="41.05" y="380" width="137.9" height="137.9" as="geometry" />
        </mxCell>
        <mxCell id="KbrCq-wF8VvZH-ui4hy0-16" value="Like/Unlike" style="sketch=0;outlineConnect=0;fontColor=light-dark(#000000,#000000);gradientColor=none;fillColor=#ED7100;strokeColor=none;dashed=0;verticalLabelPosition=bottom;verticalAlign=top;align=center;html=1;fontSize=24;fontStyle=0;aspect=fixed;pointerEvents=1;shape=mxgraph.aws4.lambda_function;" vertex="1" parent="1">
          <mxGeometry x="250" y="260" width="78" height="78" as="geometry" />
        </mxCell>
        <mxCell id="KbrCq-wF8VvZH-ui4hy0-17" value="Create&amp;nbsp;&lt;div&gt;Playlist&lt;/div&gt;" style="sketch=0;outlineConnect=0;fontColor=light-dark(#000000,#000000);gradientColor=none;fillColor=#ED7100;strokeColor=none;dashed=0;verticalLabelPosition=bottom;verticalAlign=top;align=center;html=1;fontSize=24;fontStyle=0;aspect=fixed;pointerEvents=1;shape=mxgraph.aws4.lambda_function;" vertex="1" parent="1">
          <mxGeometry x="546" y="260" width="78" height="78" as="geometry" />
        </mxCell>
        <mxCell id="KbrCq-wF8VvZH-ui4hy0-18" value="Get Watch&lt;div&gt;Next&lt;/div&gt;" style="sketch=0;outlineConnect=0;fontColor=light-dark(#000000,#000000);gradientColor=none;fillColor=#ED7100;strokeColor=none;dashed=0;verticalLabelPosition=bottom;verticalAlign=top;align=center;html=1;fontSize=24;fontStyle=0;aspect=fixed;pointerEvents=1;shape=mxgraph.aws4.lambda_function;" vertex="1" parent="1">
          <mxGeometry x="405" y="260" width="78" height="78" as="geometry" />
        </mxCell>
        <mxCell id="KbrCq-wF8VvZH-ui4hy0-50" style="edgeStyle=orthogonalEdgeStyle;rounded=0;orthogonalLoop=1;jettySize=auto;html=1;fontColor=light-dark(#000000,#000000);strokeColor=light-dark(#000000,#000000);" edge="1" parent="1" source="KbrCq-wF8VvZH-ui4hy0-19" target="KbrCq-wF8VvZH-ui4hy0-49">
          <mxGeometry relative="1" as="geometry" />
        </mxCell>
        <mxCell id="KbrCq-wF8VvZH-ui4hy0-19" value="&lt;font&gt;CI/CD&lt;/font&gt;" style="rounded=0;whiteSpace=wrap;html=1;fontColor=light-dark(#000000,#FFFFFF);fontSize=24;" vertex="1" parent="1">
          <mxGeometry x="50" y="200" width="120" height="60" as="geometry" />
        </mxCell>
        <mxCell id="KbrCq-wF8VvZH-ui4hy0-32" style="edgeStyle=orthogonalEdgeStyle;rounded=0;orthogonalLoop=1;jettySize=auto;html=1;fontColor=light-dark(#000000,#000000);strokeColor=light-dark(#000000,#000000);" edge="1" parent="1" source="KbrCq-wF8VvZH-ui4hy0-21" target="KbrCq-wF8VvZH-ui4hy0-9">
          <mxGeometry relative="1" as="geometry" />
        </mxCell>
        <mxCell id="KbrCq-wF8VvZH-ui4hy0-21" value="User" style="aspect=fixed;sketch=0;html=1;dashed=0;whitespace=wrap;verticalLabelPosition=bottom;verticalAlign=top;fillColor=#2875E2;strokeColor=#ffffff;points=[[0.005,0.63,0],[0.1,0.2,0],[0.9,0.2,0],[0.5,0,0],[0.995,0.63,0],[0.72,0.99,0],[0.5,1,0],[0.28,0.99,0]];shape=mxgraph.kubernetes.icon2;prIcon=user;fontColor=light-dark(#000000,#000000);fontSize=24;" vertex="1" parent="1">
          <mxGeometry x="1043.86" y="32.25" width="82.29" height="79" as="geometry" />
        </mxCell>
        <mxCell id="KbrCq-wF8VvZH-ui4hy0-42" style="edgeStyle=orthogonalEdgeStyle;rounded=0;orthogonalLoop=1;jettySize=auto;html=1;fontColor=light-dark(#000000,#000000);strokeColor=light-dark(#000000,#000000);startArrow=classic;startFill=1;" edge="1" parent="1" source="KbrCq-wF8VvZH-ui4hy0-22">
          <mxGeometry relative="1" as="geometry">
            <mxPoint x="1085" y="130" as="targetPoint" />
          </mxGeometry>
        </mxCell>
        <mxCell id="KbrCq-wF8VvZH-ui4hy0-22" value="Alexa" style="outlineConnect=0;dashed=0;verticalLabelPosition=bottom;verticalAlign=top;align=center;html=1;shape=mxgraph.aws3.alexa_skill;fillColor=#5294CF;gradientColor=none;fontColor=light-dark(#000000,#000000);aspect=fixed;fontSize=24;" vertex="1" parent="1">
          <mxGeometry x="1042.5" y="416" width="85" height="86" as="geometry" />
        </mxCell>
        <mxCell id="KbrCq-wF8VvZH-ui4hy0-26" value="" style="endArrow=classic;html=1;rounded=0;dashed=1;fontColor=light-dark(#000000,#000000);strokeColor=light-dark(#000000,#000000);fontSize=24;" edge="1" parent="1">
          <mxGeometry width="50" height="50" relative="1" as="geometry">
            <mxPoint x="110" y="764" as="sourcePoint" />
            <mxPoint x="109.5" y="614" as="targetPoint" />
          </mxGeometry>
        </mxCell>
        <mxCell id="KbrCq-wF8VvZH-ui4hy0-28" value="Push" style="edgeLabel;html=1;align=center;verticalAlign=middle;resizable=0;points=[];fontColor=light-dark(#000000,#FFFFFF);fontSize=24;" vertex="1" connectable="0" parent="KbrCq-wF8VvZH-ui4hy0-26">
          <mxGeometry x="-0.1143" y="-2" relative="1" as="geometry">
            <mxPoint as="offset" />
          </mxGeometry>
        </mxCell>
        <mxCell id="KbrCq-wF8VvZH-ui4hy0-29" style="edgeStyle=orthogonalEdgeStyle;rounded=0;orthogonalLoop=1;jettySize=auto;html=1;entryX=1;entryY=0.5;entryDx=0;entryDy=0;entryPerimeter=0;fontColor=light-dark(#000000,#000000);strokeColor=light-dark(#000000,#000000);" edge="1" parent="1" source="KbrCq-wF8VvZH-ui4hy0-12" target="KbrCq-wF8VvZH-ui4hy0-7">
          <mxGeometry relative="1" as="geometry" />
        </mxCell>
        <mxCell id="KbrCq-wF8VvZH-ui4hy0-30" style="edgeStyle=orthogonalEdgeStyle;rounded=0;orthogonalLoop=1;jettySize=auto;html=1;entryX=1;entryY=0.5;entryDx=0;entryDy=0;entryPerimeter=0;fontColor=light-dark(#000000,#000000);strokeColor=light-dark(#000000,#000000);" edge="1" parent="1" source="KbrCq-wF8VvZH-ui4hy0-7" target="KbrCq-wF8VvZH-ui4hy0-6">
          <mxGeometry relative="1" as="geometry" />
        </mxCell>
        <mxCell id="KbrCq-wF8VvZH-ui4hy0-43" style="edgeStyle=orthogonalEdgeStyle;rounded=0;orthogonalLoop=1;jettySize=auto;html=1;entryX=0;entryY=0.5;entryDx=0;entryDy=0;entryPerimeter=0;fontColor=light-dark(#000000,#000000);strokeColor=light-dark(#000000,#000000);" edge="1" parent="1" source="KbrCq-wF8VvZH-ui4hy0-11" target="KbrCq-wF8VvZH-ui4hy0-22">
          <mxGeometry relative="1" as="geometry">
            <Array as="points">
              <mxPoint x="700" y="55" />
              <mxPoint x="700" y="371" />
              <mxPoint x="1010" y="371" />
              <mxPoint x="1010" y="459" />
            </Array>
          </mxGeometry>
        </mxCell>
        <mxCell id="KbrCq-wF8VvZH-ui4hy0-44" value="Amplify" style="sketch=0;points=[[0,0,0],[0.25,0,0],[0.5,0,0],[0.75,0,0],[1,0,0],[0,1,0],[0.25,1,0],[0.5,1,0],[0.75,1,0],[1,1,0],[0,0.25,0],[0,0.5,0],[0,0.75,0],[1,0.25,0],[1,0.5,0],[1,0.75,0]];outlineConnect=0;fontColor=light-dark(#000000,#000000);fillColor=#DD344C;strokeColor=#ffffff;dashed=0;verticalLabelPosition=bottom;verticalAlign=top;align=center;html=1;fontSize=24;fontStyle=0;aspect=fixed;shape=mxgraph.aws4.resourceIcon;resIcon=mxgraph.aws4.amplify;" vertex="1" parent="1">
          <mxGeometry x="740" y="230" width="98" height="98" as="geometry" />
        </mxCell>
        <mxCell id="KbrCq-wF8VvZH-ui4hy0-45" style="edgeStyle=orthogonalEdgeStyle;rounded=0;orthogonalLoop=1;jettySize=auto;html=1;entryX=0.025;entryY=0.455;entryDx=0;entryDy=0;entryPerimeter=0;fontColor=light-dark(#000000,#000000);strokeColor=light-dark(#000000,#000000);startArrow=classic;startFill=1;" edge="1" parent="1" source="KbrCq-wF8VvZH-ui4hy0-44" target="KbrCq-wF8VvZH-ui4hy0-9">
          <mxGeometry relative="1" as="geometry">
            <Array as="points">
              <mxPoint x="890" y="279" />
              <mxPoint x="890" y="67" />
            </Array>
          </mxGeometry>
        </mxCell>
        <mxCell id="KbrCq-wF8VvZH-ui4hy0-48" style="edgeStyle=orthogonalEdgeStyle;rounded=0;orthogonalLoop=1;jettySize=auto;html=1;entryX=1;entryY=0.5;entryDx=0;entryDy=0;entryPerimeter=0;fontColor=light-dark(#000000,#000000);strokeColor=light-dark(#000000,#000000);startArrow=classic;startFill=1;" edge="1" parent="1" source="KbrCq-wF8VvZH-ui4hy0-21" target="KbrCq-wF8VvZH-ui4hy0-14">
          <mxGeometry relative="1" as="geometry">
            <Array as="points">
              <mxPoint x="1020" y="62" />
              <mxPoint x="1020" y="524" />
            </Array>
          </mxGeometry>
        </mxCell>
        <mxCell id="KbrCq-wF8VvZH-ui4hy0-52" value="Search for&amp;nbsp;&lt;div&gt;video&lt;/div&gt;" style="sketch=0;outlineConnect=0;fontColor=light-dark(#000000,#000000);gradientColor=none;fillColor=#ED7100;strokeColor=none;dashed=0;verticalLabelPosition=bottom;verticalAlign=top;align=center;html=1;fontSize=24;fontStyle=0;aspect=fixed;pointerEvents=1;shape=mxgraph.aws4.lambda_function;" vertex="1" parent="1">
          <mxGeometry x="546" y="420" width="78" height="78" as="geometry" />
        </mxCell>
        <mxCell id="KbrCq-wF8VvZH-ui4hy0-53" value="Download&amp;nbsp;&lt;div&gt;audio&lt;/div&gt;" style="sketch=0;outlineConnect=0;fontColor=light-dark(#000000,#000000);gradientColor=none;fillColor=#ED7100;strokeColor=none;dashed=0;verticalLabelPosition=bottom;verticalAlign=top;align=center;html=1;fontSize=24;fontStyle=0;aspect=fixed;pointerEvents=1;shape=mxgraph.aws4.lambda_function;" vertex="1" parent="1">
          <mxGeometry x="405" y="420" width="78" height="78" as="geometry" />
        </mxCell>
        <mxCell id="KbrCq-wF8VvZH-ui4hy0-54" value="Add&amp;nbsp;&lt;div&gt;comment&lt;/div&gt;" style="sketch=0;outlineConnect=0;fontColor=light-dark(#000000,#000000);gradientColor=none;fillColor=#ED7100;strokeColor=none;dashed=0;verticalLabelPosition=bottom;verticalAlign=top;align=center;html=1;fontSize=24;fontStyle=0;aspect=fixed;pointerEvents=1;shape=mxgraph.aws4.lambda_function;" vertex="1" parent="1">
          <mxGeometry x="250" y="420" width="78" height="78" as="geometry" />
        </mxCell>
        <mxCell id="KbrCq-wF8VvZH-ui4hy0-55" style="edgeStyle=orthogonalEdgeStyle;rounded=0;orthogonalLoop=1;jettySize=auto;html=1;entryX=0.476;entryY=-0.011;entryDx=0;entryDy=0;entryPerimeter=0;startArrow=classic;startFill=1;fontColor=light-dark(#000000,#000000);strokeColor=light-dark(#000000,#000000);" edge="1" parent="1" source="KbrCq-wF8VvZH-ui4hy0-11" target="KbrCq-wF8VvZH-ui4hy0-49">
          <mxGeometry relative="1" as="geometry">
            <Array as="points">
              <mxPoint x="433" y="60" />
            </Array>
          </mxGeometry>
        </mxCell>
      </root>
    </mxGraphModel>
  </diagram>
</mxfile>
